<svg xmlns="http://www.w3.org/2000/svg" xmlns:xlink="http://www.w3.org/1999/xlink" width="1024" zoomAndPan="magnify" viewBox="0 0 768 767.999994" height="1024" preserveAspectRatio="xMidYMid meet" version="1.0"><defs><clipPath id="id1"><path d="M 352 197 L 767.894531 197 L 767.894531 391 L 352 391 Z M 352 197 " clip-rule="nonzero"/></clipPath><clipPath id="id2"><path d="M 120 140.058594 L 648 140.058594 L 648 628.117188 L 120 628.117188 Z M 120 140.058594 " clip-rule="nonzero"/></clipPath></defs><g clip-path="url(#id1)"><path fill="rgb(79.998779%, 81.959534%, 85.099792%)" d="M 370.234375 390.382812 L 767.914062 248.433594 L 749.847656 197.769531 L 352.191406 339.703125 L 370.234375 390.382812 " fill-opacity="1" fill-rule="nonzero"/></g><path fill="rgb(69.018555%, 79.219055%, 92.549133%)" d="M 334.066406 364.910156 L 346.175781 398.847656 L 355.378906 395.5625 L 343.273438 361.621094 L 334.066406 364.910156 " fill-opacity="1" fill-rule="nonzero"/><path fill="rgb(69.018555%, 79.219055%, 92.549133%)" d="M 410.816406 337.523438 L 422.902344 371.464844 L 432.105469 368.175781 L 420.019531 334.238281 L 410.816406 337.523438 " fill-opacity="1" fill-rule="nonzero"/><path fill="rgb(69.018555%, 79.219055%, 92.549133%)" d="M 487.542969 310.140625 L 499.648438 344.078125 L 508.855469 340.792969 L 496.765625 306.851562 L 487.542969 310.140625 " fill-opacity="1" fill-rule="nonzero"/><path fill="rgb(69.018555%, 79.219055%, 92.549133%)" d="M 564.289062 282.734375 L 576.378906 316.675781 L 585.582031 313.386719 L 573.496094 279.449219 L 564.289062 282.734375 " fill-opacity="1" fill-rule="nonzero"/><path fill="rgb(69.018555%, 79.219055%, 92.549133%)" d="M 641.039062 255.351562 L 653.125 289.289062 L 662.328125 286.003906 L 650.242188 252.0625 L 641.039062 255.351562 " fill-opacity="1" fill-rule="nonzero"/><path fill="rgb(69.018555%, 79.219055%, 92.549133%)" d="M 717.765625 227.964844 L 729.871094 261.90625 L 739.078125 258.617188 L 726.96875 224.679688 L 717.765625 227.964844 " fill-opacity="1" fill-rule="nonzero"/><path fill="rgb(79.998779%, 81.959534%, 85.099792%)" d="M 397.65625 390.382812 L 0 248.433594 L 18.066406 197.769531 L 415.722656 339.703125 L 397.65625 390.382812 " fill-opacity="1" fill-rule="nonzero"/><path fill="rgb(69.018555%, 79.219055%, 92.549133%)" d="M 421.757812 398.847656 L 433.84375 364.910156 L 424.640625 361.621094 L 412.535156 395.5625 L 421.757812 398.847656 " fill-opacity="1" fill-rule="nonzero"/><path fill="rgb(69.018555%, 79.219055%, 92.549133%)" d="M 345.007812 371.464844 L 357.097656 337.523438 L 347.894531 334.238281 L 335.804688 368.175781 L 345.007812 371.464844 " fill-opacity="1" fill-rule="nonzero"/><path fill="rgb(69.018555%, 79.219055%, 92.549133%)" d="M 268.261719 344.078125 L 280.371094 310.140625 L 271.164062 306.851562 L 259.058594 340.792969 L 268.261719 344.078125 " fill-opacity="1" fill-rule="nonzero"/><path fill="rgb(69.018555%, 79.219055%, 92.549133%)" d="M 191.535156 316.675781 L 203.621094 282.734375 L 194.417969 279.449219 L 182.3125 313.386719 L 191.535156 316.675781 " fill-opacity="1" fill-rule="nonzero"/><path fill="rgb(69.018555%, 79.219055%, 92.549133%)" d="M 114.785156 289.289062 L 126.894531 255.351562 L 117.671875 252.0625 L 105.582031 286.003906 L 114.785156 289.289062 " fill-opacity="1" fill-rule="nonzero"/><path fill="rgb(69.018555%, 79.219055%, 92.549133%)" d="M 38.039062 261.90625 L 50.144531 227.964844 L 40.941406 224.679688 L 28.835938 258.617188 L 38.039062 261.90625 " fill-opacity="1" fill-rule="nonzero"/><g clip-path="url(#id2)"><path fill="rgb(100%, 100%, 100%)" d="M 592.324219 426.023438 C 532.761719 342.816406 533.011719 300.066406 533.011719 300.066406 L 532.742188 299.761719 C 532.707031 298.480469 532.628906 297.21875 532.628906 295.921875 C 532.628906 269.757812 535.835938 246.3125 540.496094 226.054688 C 553.023438 171.609375 576.109375 140.058594 576.109375 140.058594 L 191.800781 140.058594 C 191.800781 140.058594 214.886719 171.609375 227.414062 226.054688 C 232.074219 246.3125 235.265625 269.757812 235.265625 295.921875 C 235.265625 297.21875 235.207031 298.480469 235.167969 299.761719 L 234.882812 300.066406 C 234.882812 300.066406 235.148438 342.816406 175.589844 426.023438 C 116.046875 509.210938 120.765625 567.632812 120.765625 567.632812 L 121.050781 567.707031 C 120.535156 585.996094 121.261719 605.949219 123.742188 628.117188 L 644.167969 628.117188 C 646.652344 605.949219 647.378906 585.996094 646.84375 567.707031 L 647.148438 567.632812 C 647.148438 567.632812 651.863281 509.210938 592.324219 426.023438 " fill-opacity="1" fill-rule="nonzero"/></g><path fill="rgb(69.018555%, 79.219055%, 92.549133%)" d="M 383.945312 353.175781 C 377.605469 353.175781 372.488281 360.609375 372.488281 369.761719 C 372.488281 378.917969 377.605469 386.332031 383.945312 386.332031 C 390.285156 386.332031 395.441406 378.917969 395.441406 369.761719 C 395.441406 360.609375 390.285156 353.175781 383.945312 353.175781 " fill-opacity="1" fill-rule="nonzero"/><path fill="rgb(79.998779%, 81.959534%, 85.099792%)" d="M 587.855469 393.726562 C 587.855469 393.726562 509.160156 442.535156 383.945312 442.535156 C 258.753906 442.535156 180.058594 393.726562 180.058594 393.726562 L 151.699219 447.808594 C 255.679688 505.714844 383.945312 501.871094 383.945312 501.871094 C 383.945312 501.871094 512.234375 505.714844 616.210938 447.808594 L 587.855469 393.726562 " fill-opacity="1" fill-rule="nonzero"/><path fill="rgb(69.018555%, 79.219055%, 92.549133%)" d="M 183.515625 422.46875 L 167.53125 454.765625 L 176.296875 459.105469 L 192.277344 426.808594 L 183.515625 422.46875 " fill-opacity="1" fill-rule="nonzero"/><path fill="rgb(69.018555%, 79.219055%, 92.549133%)" d="M 258.484375 450.332031 L 249.949219 485.324219 L 259.441406 487.65625 L 267.996094 452.644531 L 258.484375 450.332031 " fill-opacity="1" fill-rule="nonzero"/><path fill="rgb(69.018555%, 79.219055%, 92.549133%)" d="M 338.515625 463.902344 L 335.632812 499.808594 L 345.371094 500.59375 L 348.257812 464.683594 L 338.515625 463.902344 " fill-opacity="1" fill-rule="nonzero"/><path fill="rgb(69.018555%, 79.219055%, 92.549133%)" d="M 419.65625 464.683594 L 422.539062 500.59375 L 432.277344 499.808594 L 429.394531 463.902344 L 419.65625 464.683594 " fill-opacity="1" fill-rule="nonzero"/><path fill="rgb(69.018555%, 79.219055%, 92.549133%)" d="M 499.917969 452.644531 L 508.472656 487.65625 L 517.964844 485.324219 L 509.425781 450.332031 L 499.917969 452.644531 " fill-opacity="1" fill-rule="nonzero"/><path fill="rgb(69.018555%, 79.219055%, 92.549133%)" d="M 575.632812 426.808594 L 591.617188 459.105469 L 600.382812 454.765625 L 584.398438 422.46875 L 575.632812 426.808594 " fill-opacity="1" fill-rule="nonzero"/></svg>