<svg xmlns="http://www.w3.org/2000/svg" xmlns:xlink="http://www.w3.org/1999/xlink" width="1024" zoomAndPan="magnify" viewBox="0 0 768 767.999994" height="1024" preserveAspectRatio="xMidYMid meet" version="1.0"><defs><clipPath id="id1"><path d="M 340 76.800781 L 507 76.800781 L 507 386 L 340 386 Z M 340 76.800781 " clip-rule="nonzero"/></clipPath><clipPath id="id2"><path d="M 7.914062 76.800781 L 198 76.800781 L 198 434 L 7.914062 434 Z M 7.914062 76.800781 " clip-rule="nonzero"/></clipPath><clipPath id="id3"><path d="M 7.914062 480 L 198 480 L 198 670.800781 L 7.914062 670.800781 Z M 7.914062 480 " clip-rule="nonzero"/></clipPath><clipPath id="id4"><path d="M 174 76.800781 L 365 76.800781 L 365 101 L 174 101 Z M 174 76.800781 " clip-rule="nonzero"/></clipPath><clipPath id="id5"><path d="M 174 409 L 767.664062 409 L 767.664062 434 L 174 434 Z M 174 409 " clip-rule="nonzero"/></clipPath><clipPath id="id6"><path d="M 7.914062 243 L 32 243 L 32 505 L 7.914062 505 Z M 7.914062 243 " clip-rule="nonzero"/></clipPath><clipPath id="id7"><path d="M 174 647 L 767.664062 647 L 767.664062 670.800781 L 174 670.800781 Z M 174 647 " clip-rule="nonzero"/></clipPath><clipPath id="id8"><path d="M 743 409 L 767.664062 409 L 767.664062 670.800781 L 743 670.800781 Z M 743 409 " clip-rule="nonzero"/></clipPath><clipPath id="id9"><path d="M 684 409 L 709 409 L 709 670.800781 L 684 670.800781 Z M 684 409 " clip-rule="nonzero"/></clipPath><clipPath id="id10"><path d="M 601 611 L 626 611 L 626 670.800781 L 601 670.800781 Z M 601 611 " clip-rule="nonzero"/></clipPath><clipPath id="id11"><path d="M 530 575 L 554 575 L 554 670.800781 L 530 670.800781 Z M 530 575 " clip-rule="nonzero"/></clipPath><clipPath id="id12"><path d="M 459 611 L 483 611 L 483 670.800781 L 459 670.800781 Z M 459 611 " clip-rule="nonzero"/></clipPath><clipPath id="id13"><path d="M 387 575 L 412 575 L 412 670.800781 L 387 670.800781 Z M 387 575 " clip-rule="nonzero"/></clipPath><clipPath id="id14"><path d="M 316 611 L 341 611 L 341 670.800781 L 316 670.800781 Z M 316 611 " clip-rule="nonzero"/></clipPath><clipPath id="id15"><path d="M 245 575 L 270 575 L 270 670.800781 L 245 670.800781 Z M 245 575 " clip-rule="nonzero"/></clipPath><clipPath id="id16"><path d="M 174 611 L 198 611 L 198 670.800781 L 174 670.800781 Z M 174 611 " clip-rule="nonzero"/></clipPath></defs><path fill="rgb(90.19928%, 91.369629%, 92.939758%)" d="M 696.4375 421.320312 L 755.792969 421.320312 L 755.792969 658.917969 L 696.4375 658.917969 Z M 696.4375 421.320312 " fill-opacity="1" fill-rule="nonzero"/><path fill="rgb(79.998779%, 81.959534%, 85.099792%)" d="M 257.207031 231.242188 L 304.691406 231.242188 L 304.691406 278.761719 L 257.207031 278.761719 Z M 257.207031 231.242188 " fill-opacity="1" fill-rule="nonzero"/><path fill="rgb(79.998779%, 81.959534%, 85.099792%)" d="M 257.207031 231.242188 L 257.207031 278.761719 L 185.980469 278.761719 C 172.921875 278.761719 162.238281 268.066406 162.238281 255 C 162.238281 241.933594 172.921875 231.242188 185.980469 231.242188 Z M 257.207031 231.242188 " fill-opacity="1" fill-rule="nonzero"/><path fill="rgb(79.998779%, 81.959534%, 85.099792%)" d="M 696.4375 611.398438 L 696.4375 658.917969 L 185.980469 658.917969 C 94.21875 658.917969 19.785156 584.433594 19.785156 492.601562 L 19.785156 255 C 19.785156 346.832031 94.21875 421.320312 185.980469 421.320312 L 696.4375 421.320312 Z M 696.4375 611.398438 " fill-opacity="1" fill-rule="nonzero"/><path fill="rgb(79.998779%, 81.959534%, 85.099792%)" d="M 304.691406 278.761719 L 304.691406 231.242188 L 185.980469 231.242188 C 172.921875 231.242188 162.238281 241.933594 162.238281 255 C 162.238281 268.066406 172.921875 278.761719 185.980469 278.761719 Z M 494.628906 231.242188 L 494.628906 421.320312 L 185.980469 421.320312 C 94.21875 421.320312 19.785156 346.832031 19.785156 255 C 19.785156 163.167969 94.21875 88.679688 185.980469 88.679688 L 352.175781 88.679688 C 430.882812 88.679688 494.628906 152.476562 494.628906 231.242188 Z M 494.628906 231.242188 " fill-opacity="1" fill-rule="nonzero"/><path fill="rgb(100%, 100%, 100%)" d="M 185.980469 290.640625 C 166.347656 290.640625 150.367188 274.648438 150.367188 255 C 150.367188 235.351562 166.347656 219.359375 185.980469 219.359375 C 192.546875 219.359375 197.851562 224.671875 197.851562 231.242188 C 197.851562 237.808594 192.546875 243.121094 185.980469 243.121094 C 179.429688 243.121094 174.109375 248.441406 174.109375 255 C 174.109375 261.558594 179.429688 266.878906 185.980469 266.878906 C 192.546875 266.878906 197.851562 272.191406 197.851562 278.761719 C 197.851562 285.328125 192.546875 290.640625 185.980469 290.640625 Z M 185.980469 290.640625 " fill-opacity="1" fill-rule="nonzero"/><path fill="rgb(100%, 100%, 100%)" d="M 352.164062 290.652344 C 345.601562 290.652344 340.292969 285.339844 340.292969 278.773438 C 340.292969 272.203125 345.601562 266.890625 352.164062 266.890625 C 371.800781 266.890625 387.777344 250.902344 387.777344 231.253906 C 387.777344 211.601562 371.800781 195.613281 352.164062 195.613281 C 345.601562 195.613281 340.292969 190.300781 340.292969 183.730469 C 340.292969 177.164062 345.601562 171.851562 352.164062 171.851562 C 384.894531 171.851562 411.519531 198.5 411.519531 231.253906 C 411.519531 264.003906 384.894531 290.652344 352.164062 290.652344 Z M 352.164062 290.652344 " fill-opacity="1" fill-rule="nonzero"/><path fill="rgb(100%, 100%, 100%)" d="M 352.175781 290.640625 L 185.980469 290.640625 C 179.417969 290.640625 174.109375 285.328125 174.109375 278.761719 C 174.109375 272.191406 179.417969 266.878906 185.980469 266.878906 L 352.175781 266.878906 C 358.742188 266.878906 364.046875 272.191406 364.046875 278.761719 C 364.046875 285.328125 358.742188 290.640625 352.175781 290.640625 Z M 352.175781 290.640625 " fill-opacity="1" fill-rule="nonzero"/><path fill="rgb(100%, 100%, 100%)" d="M 352.164062 195.613281 L 185.980469 195.601562 C 179.417969 195.601562 174.109375 190.277344 174.109375 183.71875 C 174.109375 177.152344 179.429688 171.839844 185.980469 171.839844 L 352.164062 171.851562 C 358.730469 171.851562 364.035156 177.175781 364.035156 183.730469 C 364.035156 190.300781 358.71875 195.613281 352.164062 195.613281 Z M 352.164062 195.613281 " fill-opacity="1" fill-rule="nonzero"/><path fill="rgb(100%, 100%, 100%)" d="M 304.691406 243.121094 L 185.980469 243.121094 C 179.417969 243.121094 174.109375 237.808594 174.109375 231.242188 C 174.109375 224.671875 179.417969 219.359375 185.980469 219.359375 L 304.691406 219.359375 C 311.257812 219.359375 316.5625 224.671875 316.5625 231.242188 C 316.5625 237.808594 311.257812 243.121094 304.691406 243.121094 Z M 304.691406 243.121094 " fill-opacity="1" fill-rule="nonzero"/><path fill="rgb(100%, 100%, 100%)" d="M 304.691406 290.652344 C 298.128906 290.652344 292.820312 285.339844 292.820312 278.773438 L 292.820312 231.242188 C 292.820312 224.671875 298.128906 219.359375 304.691406 219.359375 C 311.257812 219.359375 316.5625 224.671875 316.5625 231.242188 L 316.5625 278.773438 C 316.5625 285.34375 311.257812 290.652344 304.691406 290.652344 Z M 304.691406 290.652344 " fill-opacity="1" fill-rule="nonzero"/><path fill="rgb(100%, 100%, 100%)" d="M 257.207031 290.652344 C 250.644531 290.652344 245.335938 285.339844 245.335938 278.773438 L 245.335938 231.242188 C 245.335938 224.671875 250.644531 219.359375 257.207031 219.359375 C 263.773438 219.359375 269.078125 224.671875 269.078125 231.242188 L 269.078125 278.773438 C 269.078125 285.34375 263.773438 290.652344 257.207031 290.652344 Z M 257.207031 290.652344 " fill-opacity="1" fill-rule="nonzero"/><path fill="rgb(100%, 100%, 100%)" d="M 185.980469 338.160156 C 140.171875 338.160156 102.882812 300.84375 102.882812 255 C 102.882812 209.15625 140.171875 171.839844 185.980469 171.839844 C 192.546875 171.839844 197.851562 177.152344 197.851562 183.71875 C 197.851562 190.289062 192.546875 195.601562 185.980469 195.601562 C 153.253906 195.601562 126.625 222.246094 126.625 255 C 126.625 287.753906 153.253906 314.398438 185.980469 314.398438 C 192.546875 314.398438 197.851562 319.710938 197.851562 326.28125 C 197.851562 332.851562 192.546875 338.160156 185.980469 338.160156 Z M 185.980469 338.160156 " fill-opacity="1" fill-rule="nonzero"/><path fill="rgb(100%, 100%, 100%)" d="M 352.175781 338.160156 L 185.980469 338.160156 C 179.417969 338.160156 174.109375 332.851562 174.109375 326.28125 C 174.109375 319.710938 179.417969 314.398438 185.980469 314.398438 L 352.175781 314.398438 C 358.742188 314.398438 364.046875 319.710938 364.046875 326.28125 C 364.046875 332.851562 358.742188 338.160156 352.175781 338.160156 Z M 352.175781 338.160156 " fill-opacity="1" fill-rule="nonzero"/><path fill="rgb(100%, 100%, 100%)" d="M 352.175781 338.160156 C 345.613281 338.160156 340.304688 332.851562 340.304688 326.28125 C 340.304688 319.710938 345.613281 314.398438 352.175781 314.398438 C 397.988281 314.398438 435.273438 277.085938 435.273438 231.242188 C 435.273438 185.394531 397.988281 148.082031 352.175781 148.082031 C 345.613281 148.082031 340.304688 142.769531 340.304688 136.199219 C 340.304688 129.632812 345.613281 124.320312 352.175781 124.320312 C 411.09375 124.320312 459.015625 172.28125 459.015625 231.242188 C 459.015625 290.199219 411.09375 338.160156 352.175781 338.160156 Z M 352.175781 338.160156 " fill-opacity="1" fill-rule="nonzero"/><g clip-path="url(#id1)"><path fill="rgb(100%, 100%, 100%)" d="M 352.175781 385.679688 C 345.613281 385.679688 340.304688 380.371094 340.304688 373.800781 C 340.304688 367.230469 345.613281 361.921875 352.175781 361.921875 C 424.175781 361.921875 482.757812 303.292969 482.757812 231.242188 C 482.757812 159.1875 424.175781 100.5625 352.175781 100.5625 C 345.613281 100.5625 340.304688 95.25 340.304688 88.679688 C 340.304688 82.109375 345.613281 76.800781 352.175781 76.800781 C 437.269531 76.800781 506.5 146.085938 506.5 231.242188 C 506.5 316.394531 437.269531 385.679688 352.175781 385.679688 Z M 352.175781 385.679688 " fill-opacity="1" fill-rule="nonzero"/></g><path fill="rgb(100%, 100%, 100%)" d="M 185.980469 385.679688 C 113.984375 385.679688 55.398438 327.050781 55.398438 255 C 55.398438 182.949219 113.984375 124.320312 185.980469 124.320312 C 192.546875 124.320312 197.851562 129.632812 197.851562 136.199219 C 197.851562 142.769531 192.546875 148.082031 185.980469 148.082031 C 127.066406 148.082031 79.140625 196.039062 79.140625 255 C 79.140625 313.960938 127.066406 361.921875 185.980469 361.921875 C 192.546875 361.921875 197.851562 367.230469 197.851562 373.800781 C 197.851562 380.371094 192.546875 385.679688 185.980469 385.679688 Z M 185.980469 385.679688 " fill-opacity="1" fill-rule="nonzero"/><g clip-path="url(#id2)"><path fill="rgb(100%, 100%, 100%)" d="M 185.980469 433.199219 C 87.796875 433.199219 7.914062 353.257812 7.914062 255 C 7.914062 156.742188 87.796875 76.800781 185.980469 76.800781 C 192.546875 76.800781 197.851562 82.109375 197.851562 88.679688 C 197.851562 95.25 192.546875 100.5625 185.980469 100.5625 C 100.890625 100.5625 31.65625 169.84375 31.65625 255 C 31.65625 340.15625 100.890625 409.441406 185.980469 409.441406 C 192.546875 409.441406 197.851562 414.75 197.851562 421.320312 C 197.851562 427.890625 192.546875 433.199219 185.980469 433.199219 Z M 185.980469 433.199219 " fill-opacity="1" fill-rule="nonzero"/></g><g clip-path="url(#id3)"><path fill="rgb(100%, 100%, 100%)" d="M 185.980469 670.800781 C 87.796875 670.800781 7.914062 590.859375 7.914062 492.601562 C 7.914062 486.03125 13.222656 480.71875 19.785156 480.71875 C 26.351562 480.71875 31.65625 486.03125 31.65625 492.601562 C 31.65625 577.753906 100.890625 647.039062 185.980469 647.039062 C 192.546875 647.039062 197.851562 652.351562 197.851562 658.917969 C 197.851562 665.488281 192.546875 670.800781 185.980469 670.800781 Z M 185.980469 670.800781 " fill-opacity="1" fill-rule="nonzero"/></g><path fill="rgb(100%, 100%, 100%)" d="M 352.175781 148.082031 L 185.980469 148.082031 C 179.417969 148.082031 174.109375 142.769531 174.109375 136.199219 C 174.109375 129.632812 179.417969 124.320312 185.980469 124.320312 L 352.175781 124.320312 C 358.742188 124.320312 364.046875 129.632812 364.046875 136.199219 C 364.046875 142.769531 358.742188 148.082031 352.175781 148.082031 Z M 352.175781 148.082031 " fill-opacity="1" fill-rule="nonzero"/><path fill="rgb(100%, 100%, 100%)" d="M 352.175781 385.679688 L 185.980469 385.679688 C 179.417969 385.679688 174.109375 380.371094 174.109375 373.800781 C 174.109375 367.230469 179.417969 361.921875 185.980469 361.921875 L 352.175781 361.921875 C 358.742188 361.921875 364.046875 367.230469 364.046875 373.800781 C 364.046875 380.371094 358.742188 385.679688 352.175781 385.679688 Z M 352.175781 385.679688 " fill-opacity="1" fill-rule="nonzero"/><g clip-path="url(#id4)"><path fill="rgb(100%, 100%, 100%)" d="M 352.175781 100.5625 L 185.980469 100.5625 C 179.417969 100.5625 174.109375 95.25 174.109375 88.679688 C 174.109375 82.109375 179.417969 76.800781 185.980469 76.800781 L 352.175781 76.800781 C 358.742188 76.800781 364.046875 82.109375 364.046875 88.679688 C 364.046875 95.25 358.742188 100.5625 352.175781 100.5625 Z M 352.175781 100.5625 " fill-opacity="1" fill-rule="nonzero"/></g><g clip-path="url(#id5)"><path fill="rgb(100%, 100%, 100%)" d="M 755.792969 433.199219 L 185.980469 433.199219 C 179.417969 433.199219 174.109375 427.890625 174.109375 421.320312 C 174.109375 414.75 179.417969 409.441406 185.980469 409.441406 L 755.792969 409.441406 C 762.359375 409.441406 767.664062 414.75 767.664062 421.320312 C 767.664062 427.890625 762.359375 433.199219 755.792969 433.199219 Z M 755.792969 433.199219 " fill-opacity="1" fill-rule="nonzero"/></g><g clip-path="url(#id6)"><path fill="rgb(100%, 100%, 100%)" d="M 19.785156 504.480469 C 13.222656 504.480469 7.914062 499.167969 7.914062 492.601562 L 7.914062 255 C 7.914062 248.429688 13.222656 243.121094 19.785156 243.121094 C 26.351562 243.121094 31.65625 248.429688 31.65625 255 L 31.65625 492.601562 C 31.65625 499.167969 26.351562 504.480469 19.785156 504.480469 Z M 19.785156 504.480469 " fill-opacity="1" fill-rule="nonzero"/></g><path fill="rgb(100%, 100%, 100%)" d="M 494.628906 433.199219 C 488.066406 433.199219 482.757812 427.890625 482.757812 421.320312 L 482.757812 231.242188 C 482.757812 224.671875 488.066406 219.359375 494.628906 219.359375 C 501.195312 219.359375 506.5 224.671875 506.5 231.242188 L 506.5 421.320312 C 506.5 427.890625 501.195312 433.199219 494.628906 433.199219 Z M 494.628906 433.199219 " fill-opacity="1" fill-rule="nonzero"/><g clip-path="url(#id7)"><path fill="rgb(100%, 100%, 100%)" d="M 755.792969 670.800781 L 185.980469 670.800781 C 179.417969 670.800781 174.109375 665.488281 174.109375 658.917969 C 174.109375 652.351562 179.417969 647.039062 185.980469 647.039062 L 755.792969 647.039062 C 762.359375 647.039062 767.664062 652.351562 767.664062 658.917969 C 767.664062 665.488281 762.359375 670.800781 755.792969 670.800781 Z M 755.792969 670.800781 " fill-opacity="1" fill-rule="nonzero"/></g><g clip-path="url(#id8)"><path fill="rgb(100%, 100%, 100%)" d="M 755.792969 670.800781 C 749.230469 670.800781 743.921875 665.488281 743.921875 658.917969 L 743.921875 421.320312 C 743.921875 414.75 749.230469 409.441406 755.792969 409.441406 C 762.359375 409.441406 767.664062 414.75 767.664062 421.320312 L 767.664062 658.917969 C 767.664062 665.488281 762.359375 670.800781 755.792969 670.800781 Z M 755.792969 670.800781 " fill-opacity="1" fill-rule="nonzero"/></g><g clip-path="url(#id9)"><path fill="rgb(100%, 100%, 100%)" d="M 696.4375 670.800781 C 689.875 670.800781 684.566406 665.488281 684.566406 658.917969 L 684.566406 421.308594 C 684.566406 414.738281 689.875 409.429688 696.4375 409.429688 C 703.003906 409.429688 708.308594 414.738281 708.308594 421.308594 L 708.308594 658.917969 C 708.308594 665.488281 703.003906 670.800781 696.4375 670.800781 Z M 696.4375 670.800781 " fill-opacity="1" fill-rule="nonzero"/></g><path fill="rgb(100%, 100%, 100%)" d="M 696.4375 480.71875 L 684.566406 480.71875 C 678.003906 480.71875 672.695312 475.410156 672.695312 468.839844 C 672.695312 462.269531 678.003906 456.960938 684.566406 456.960938 L 696.4375 456.960938 C 703.003906 456.960938 708.308594 462.269531 708.308594 468.839844 C 708.308594 475.410156 703.003906 480.71875 696.4375 480.71875 Z M 696.4375 480.71875 " fill-opacity="1" fill-rule="nonzero"/><path fill="rgb(100%, 100%, 100%)" d="M 696.4375 528.238281 L 684.566406 528.238281 C 678.003906 528.238281 672.695312 522.929688 672.695312 516.359375 C 672.695312 509.789062 678.003906 504.480469 684.566406 504.480469 L 696.4375 504.480469 C 703.003906 504.480469 708.308594 509.789062 708.308594 516.359375 C 708.308594 522.929688 703.003906 528.238281 696.4375 528.238281 Z M 696.4375 528.238281 " fill-opacity="1" fill-rule="nonzero"/><path fill="rgb(100%, 100%, 100%)" d="M 696.4375 575.757812 L 684.566406 575.757812 C 678.003906 575.757812 672.695312 570.449219 672.695312 563.878906 C 672.695312 557.308594 678.003906 552 684.566406 552 L 696.4375 552 C 703.003906 552 708.308594 557.308594 708.308594 563.878906 C 708.308594 570.449219 703.003906 575.757812 696.4375 575.757812 Z M 696.4375 575.757812 " fill-opacity="1" fill-rule="nonzero"/><path fill="rgb(100%, 100%, 100%)" d="M 696.4375 623.28125 L 684.566406 623.28125 C 678.003906 623.28125 672.695312 617.96875 672.695312 611.398438 C 672.695312 604.828125 678.003906 599.519531 684.566406 599.519531 L 696.4375 599.519531 C 703.003906 599.519531 708.308594 604.828125 708.308594 611.398438 C 708.308594 617.96875 703.003906 623.28125 696.4375 623.28125 Z M 696.4375 623.28125 " fill-opacity="1" fill-rule="nonzero"/><g clip-path="url(#id10)"><path fill="rgb(100%, 100%, 100%)" d="M 613.339844 670.800781 C 606.777344 670.800781 601.46875 665.488281 601.46875 658.917969 L 601.46875 623.28125 C 601.46875 616.710938 606.777344 611.398438 613.339844 611.398438 C 619.90625 611.398438 625.210938 616.710938 625.210938 623.28125 L 625.210938 658.917969 C 625.210938 665.488281 619.90625 670.800781 613.339844 670.800781 Z M 613.339844 670.800781 " fill-opacity="1" fill-rule="nonzero"/></g><g clip-path="url(#id11)"><path fill="rgb(100%, 100%, 100%)" d="M 542.113281 670.800781 C 535.550781 670.800781 530.242188 665.488281 530.242188 658.917969 L 530.242188 587.640625 C 530.242188 581.070312 535.550781 575.757812 542.113281 575.757812 C 548.679688 575.757812 553.984375 581.070312 553.984375 587.640625 L 553.984375 658.917969 C 553.984375 665.488281 548.679688 670.800781 542.113281 670.800781 Z M 542.113281 670.800781 " fill-opacity="1" fill-rule="nonzero"/></g><g clip-path="url(#id12)"><path fill="rgb(100%, 100%, 100%)" d="M 470.886719 670.800781 C 464.324219 670.800781 459.015625 665.488281 459.015625 658.917969 L 459.015625 623.28125 C 459.015625 616.710938 464.324219 611.398438 470.886719 611.398438 C 477.453125 611.398438 482.757812 616.710938 482.757812 623.28125 L 482.757812 658.917969 C 482.757812 665.488281 477.453125 670.800781 470.886719 670.800781 Z M 470.886719 670.800781 " fill-opacity="1" fill-rule="nonzero"/></g><g clip-path="url(#id13)"><path fill="rgb(100%, 100%, 100%)" d="M 399.660156 670.800781 C 393.097656 670.800781 387.789062 665.488281 387.789062 658.917969 L 387.789062 587.640625 C 387.789062 581.070312 393.097656 575.757812 399.660156 575.757812 C 406.226562 575.757812 411.53125 581.070312 411.53125 587.640625 L 411.53125 658.917969 C 411.53125 665.488281 406.226562 670.800781 399.660156 670.800781 Z M 399.660156 670.800781 " fill-opacity="1" fill-rule="nonzero"/></g><g clip-path="url(#id14)"><path fill="rgb(100%, 100%, 100%)" d="M 328.433594 670.800781 C 321.871094 670.800781 316.5625 665.488281 316.5625 658.917969 L 316.5625 623.28125 C 316.5625 616.710938 321.871094 611.398438 328.433594 611.398438 C 335 611.398438 340.304688 616.710938 340.304688 623.28125 L 340.304688 658.917969 C 340.304688 665.488281 335 670.800781 328.433594 670.800781 Z M 328.433594 670.800781 " fill-opacity="1" fill-rule="nonzero"/></g><g clip-path="url(#id15)"><path fill="rgb(100%, 100%, 100%)" d="M 257.207031 670.800781 C 250.644531 670.800781 245.335938 665.488281 245.335938 658.917969 L 245.335938 587.640625 C 245.335938 581.070312 250.644531 575.757812 257.207031 575.757812 C 263.773438 575.757812 269.078125 581.070312 269.078125 587.640625 L 269.078125 658.917969 C 269.078125 665.488281 263.773438 670.800781 257.207031 670.800781 Z M 257.207031 670.800781 " fill-opacity="1" fill-rule="nonzero"/></g><g clip-path="url(#id16)"><path fill="rgb(100%, 100%, 100%)" d="M 185.980469 670.800781 C 179.417969 670.800781 174.109375 665.488281 174.109375 658.917969 L 174.109375 623.28125 C 174.109375 616.710938 179.417969 611.398438 185.980469 611.398438 C 192.546875 611.398438 197.851562 616.710938 197.851562 623.28125 L 197.851562 658.917969 C 197.851562 665.488281 192.546875 670.800781 185.980469 670.800781 Z M 185.980469 670.800781 " fill-opacity="1" fill-rule="nonzero"/></g></svg>