<svg xmlns="http://www.w3.org/2000/svg" xmlns:xlink="http://www.w3.org/1999/xlink" width="1024" zoomAndPan="magnify" viewBox="0 0 768 767.999994" height="1024" preserveAspectRatio="xMidYMid meet" version="1.0"><defs><clipPath id="id1"><path d="M 10.84375 21 L 747 21 L 747 757.09375 L 10.84375 757.09375 Z M 10.84375 21 " clip-rule="nonzero"/></clipPath></defs><g clip-path="url(#id1)"><path fill="rgb(88.238525%, 90.979004%, 92.939758%)" d="M 727.808594 40.125 C 698.179688 10.492188 643.015625 17.605469 604.613281 56.03125 C 562.894531 97.753906 10.820312 757.113281 10.820312 757.113281 C 10.820312 757.113281 670.183594 205.042969 711.902344 163.320312 C 750.328125 124.917969 757.441406 69.757812 727.808594 40.125 Z M 603.894531 164.042969 C 592.042969 152.195312 599.855469 125.160156 622.898438 102.117188 C 645.941406 79.074219 674.242188 69.996094 686.089844 81.84375 C 697.9375 93.695312 688.859375 121.996094 665.820312 145.035156 C 642.777344 168.078125 615.742188 175.890625 603.894531 164.042969 Z M 603.894531 164.042969 " fill-opacity="1" fill-rule="nonzero"/></g><path fill="rgb(100%, 100%, 100%)" d="M 722.964844 43.375 C 693.332031 13.746094 643.738281 24.414062 605.332031 62.816406 C 563.589844 104.558594 97.664062 670.269531 97.664062 670.269531 C 97.664062 670.269531 182.851562 588.859375 301.398438 489.226562 C 356.648438 442.792969 493.722656 297.386719 547.683594 249.425781 C 571.011719 228.695312 630.339844 218.503906 648.796875 206.65625 C 666.953125 194.984375 690.867188 168.84375 699.640625 160.070312 C 738.042969 121.644531 752.597656 73.007812 722.964844 43.375 Z M 594.074219 173.859375 C 577.335938 157.125 585.324219 121.972656 613.863281 93.433594 C 642.40625 64.890625 679.128906 55.3125 695.863281 72.070312 C 712.601562 88.804688 703.042969 125.527344 674.503906 154.070312 C 645.960938 182.609375 610.832031 190.597656 594.074219 173.859375 Z M 594.074219 173.859375 " fill-opacity="1" fill-rule="nonzero"/><path fill="rgb(100%, 100%, 100%)" d="M 600.097656 101.722656 C 620.519531 121.777344 633.023438 142.59375 639.742188 163.910156 C 648.339844 159.832031 657.332031 153.523438 665.820312 145.035156 C 669.398438 141.457031 672.582031 137.75 675.417969 134.015625 C 666.082031 112.523438 651.679688 91.226562 630.667969 70.609375 C 592.089844 32.726562 514.953125 13.960938 429.550781 21.511719 C 331.117188 30.261719 249.664062 70.5 206.109375 131.878906 C 199.128906 141.699219 201.441406 155.335938 211.28125 162.296875 C 221.078125 169.277344 234.738281 166.945312 241.699219 157.125 C 277.308594 106.9375 348.988281 72.484375 433.433594 64.976562 C 504.21875 58.648438 571.273438 73.445312 600.097656 101.722656 Z M 737.410156 667.28125 C 729.25 658.398438 715.460938 657.832031 706.578125 665.972656 C 669.984375 699.574219 616.265625 710.722656 569.765625 694.382812 C 531.320312 680.851562 505.984375 651.503906 500.269531 613.910156 C 490.710938 550.847656 530.992188 497.890625 581.964844 430.816406 L 596.472656 411.65625 C 630.820312 366.03125 697.675781 277.09375 688.488281 184.445312 C 677.101562 194.4375 662.132812 207.421875 644.414062 222.652344 C 637.101562 276.21875 602.125 331.578125 561.605469 385.429688 L 547.226562 404.414062 C 492.261719 476.703125 444.800781 539.152344 457.128906 620.453125 C 465.203125 673.71875 501.882812 716.746094 555.253906 735.535156 C 574.109375 742.1875 593.855469 745.398438 613.558594 745.398438 C 658.136719 745.398438 702.5625 728.878906 736.078125 698.089844 C 744.980469 689.972656 745.570312 676.160156 737.410156 667.28125 Z M 737.410156 667.28125 " fill-opacity="1" fill-rule="nonzero"/><path fill="rgb(88.238525%, 90.979004%, 92.939758%)" d="M 524.640625 184.355469 C 546.003906 161.882812 561.582031 136.722656 564.507812 159.089844 C 567.429688 181.453125 575.199219 192.144531 586.875 192.144531 C 598.546875 192.144531 587.746094 213.136719 569.375 218.394531 C 514.933594 233.953125 339.933594 433.257812 300.070312 470.199219 C 260.203125 507.140625 237.859375 523.660156 276.742188 474.085938 C 315.625 424.507812 506.160156 203.796875 524.640625 184.355469 Z M 524.640625 184.355469 " fill-opacity="1" fill-rule="nonzero"/></svg>