<?xml version="1.0" encoding="utf-8"?>
<!-- Generator: Adobe Illustrator 25.0.1, SVG Export Plug-In . SVG Version: 6.00 Build 0)  -->
<svg version="1.1" id="Head" xmlns="http://www.w3.org/2000/svg" xmlns:xlink="http://www.w3.org/1999/xlink" x="0px" y="0px"
	 viewBox="0 0 147.2 214.6" style="enable-background:new 0 0 147.2 214.6;" xml:space="preserve">
<style type="text/css">
	.st0{fill:#FFFFFF;}
	.st1{fill:#D2D2FF;}
	.st2{fill:#431094;}
	.st3{display:none;}
	.st4{display:inline;}
	.st5{fill:#9B836B;}
	.st6{fill:#77604A;}
	.st7{fill:#BC9D88;}
	.st8{display:inline;fill:#D85B5B;}
	.st9{display:inline;fill:#ED7272;}
	.st10{fill:#FCD4C4;}
	.st11{display:inline;fill:#FFFFFF;}
	.st12{fill:#968CF0;}
	.st13{fill:#6B4ACE;}
	.st14{fill:#BEBEFF;}
	.st15{fill:#FF7253;}
	.st16{fill:#FF9685;}
	.st17{display:inline;fill:#FFE655;}
	.st18{display:none;fill:#FFFFFF;}
</style>
<g id="Face">
	<g id="Ears_1_">
		<path class="st0" d="M132.2,133.2c6.8,0,12.3-5.5,12.3-12.3s-5.5-12.3-12.3-12.3V133.2z"/>
		<path class="st1" d="M134.6,126.3c2-1.1,3.3-3.2,3.3-5.7s-1.3-4.5-3.3-5.7V126.3z"/>
		<path class="st2" d="M132.2,135.6h-2.5V106h2.5c8.2,0,14.8,6.6,14.8,14.8S140.4,135.6,132.2,135.6z M134.7,111.3v19.1
			c4.3-1.1,7.4-5,7.4-9.6C142.1,116.2,139,112.4,134.7,111.3z"/>
	</g>
	<g>
		<path id="Head_2_" class="st0" d="M82.9,186.8L82.9,186.8c-27.1,0-49.4-22.2-49.4-49.4v-30.8c0-27.1,22.2-49.4,49.4-49.4h16
			c18.3,0.1,33.3,15.1,33.3,33.4v46.9C132.2,164.6,110,186.8,82.9,186.8z"/>
		<path id="Face_Shadow_1_" class="st1" d="M102.9,147.6c3.2,2.4,7.2,4.4,10.4,4.4c6,0,17.1-18.3,16.5-37.4V93.3h-4.9v21.4
			c0,11.5-6.6,28-10.4,30.8C111.3,147.2,104.4,147.9,102.9,147.6z"/>
		<path id="Hair_Shadow_1_" class="st1" d="M103.4,81.8l5.3-2.6c0.7-0.7,1.9-2.7,2.5-3.5c-9.1,1.6-13.9-0.3-18.8-2.1
			c-2.8-1.1-7.6-3.1-11.1-3.4c-9.4-0.8-20.2,3.5-30,10.8c-3.2,2.4-13.8,9.6-15.9,14c-1.5,3-2.3,12.6-2.4,17.2
			c-0.4,10,1.2,19.3,5.9,28.6c0.9,2,3.9,3.2,4.8,4.8c6-9.8,7.2-25.8,1.4-36.8c-2-3.8-1.2-5.6-0.9-6.1c1.1-2.2,4.4-4.2,8-4.8
			C65,95.7,68.8,87.4,71.1,82.4c2.1-4.7,2.5-5.4,8.4-4.9c2.8,0.2,4.9,1.1,7.6,2.1C94.1,82.2,103.4,81.8,103.4,81.8z"/>
		<path class="st2" d="M82.9,189.3c-28.6,0-51.8-23.3-51.8-51.8v-30.8c0-28.6,23.2-51.8,51.8-51.8h16c19.7,0,35.8,16.1,35.8,35.8
			v46.9C134.7,166.1,111.5,189.3,82.9,189.3z M82.9,59.7C57,59.7,36,80.7,36,106.6v30.8c0,25.9,21,46.9,46.9,46.9s46.9-21,46.9-46.9
			V90.6c0-17-13.8-30.8-30.8-30.8H82.9V59.7z"/>
	</g>
</g>
<g id="Mouth_2_">
	<g id="Excited" class="st3">
		<g id="Beard_3_" class="st4">
			<path class="st5" d="M114.9,152.9c8.6,0,17.3-24.7,17.3-38.3c0,0,0,16,0,29.6c0,29.6-20.1,66-49.4,66s-49.4-36.4-49.4-66
				c0-13.6,0-29.6,0-29.6c0,13.6,8.6,38.3,17.3,38.3c8.6,0,12.3-8.6,32.1-8.6S105,152.9,114.9,152.9z"/>
			<path class="st6" d="M82.8,210.3c32.8,0,48-37.7,48.5-68.3l-1.1-5.5c-2,5.6-3.7,7-5.7,9.9C124.6,177.6,102.8,210.3,82.8,210.3z"
				/>
			<path class="st7" d="M41,147.2c-0.9-1.4-2-3.2-2.8-4.8c-0.1,0.1-1.1,1.3-1.2,1.4c-0.7,0.8-1.4,2-2.1,2.6
				c1,28.2,14,63.9,47.9,63.9C61.4,210.3,42.9,175.7,41,147.2z"/>
			<path d="M82.8,215.2c-12,0-25-11.3-35.6-25.7C37.1,175.8,31,158.9,31,144.2v-29.6h4.9c0,14.4,8.9,35.8,14.8,35.8
				c2.8,0,5.1-1.2,8.2-2.7c4.8-2.5,11.4-5.9,23.9-5.9c12.2,0,18.2,3.2,23,5.7c3.1,1.6,5.6,2.9,9.1,2.9c6,0,14.8-21.4,14.8-35.8h4.9
				v29.7c0,14.6-6.1,31.6-16.2,45.3C107.9,203.9,94.9,215.2,82.8,215.2z M35.9,138.3v6c0,29.4,25,66,46.9,66s46.9-36.6,46.9-66v-6
				c-3.6,9.3-8.8,17.1-14.8,17.1c-4.7,0-7.9-1.7-11.4-3.5c-4.6-2.4-9.8-5.1-20.7-5.1c-11.3,0-17,3-21.7,5.3
				c-3.3,1.7-6.4,3.3-10.4,3.3C44.7,155.4,39.5,147.6,35.9,138.3z"/>
		</g>
		<path class="st4" d="M72,167.1c0,10,5.9,23.3,10.7,23.3s11.1-13.3,11.1-23.3c0-8.5-8.1-10-11.1-10C79.6,157.1,72,158.6,72,167.1z"
			/>
		<path class="st8" d="M72.8,175.1c0,0,2.5-7.3,9.9-7.3s10.1,7.3,10.1,7.3s0.3,17-10.1,17S72.8,175.1,72.8,175.1z"/>
		<path class="st9" d="M82.8,171.5c4.7,0,7.5,4.1,8.9,7.2c0.8-2.1,1.2-3.7,1.2-3.7s-2.6-7.3-10.1-7.3s-9.9,7.3-9.9,7.3
			s0.4,1.5,1.2,3.6C75.4,175.6,78.1,171.5,82.8,171.5z"/>
		<path class="st4" d="M82.6,192.9c-6,0-13.1-4.5-13.1-25.8c0-8.5,6.8-12.4,13.1-12.4c4.7,0,13.6,2.6,13.6,12.4
			C96.2,183.7,91.4,192.9,82.6,192.9z M82.6,159.6c-1.4,0-8.2,0.4-8.2,7.5c0,7.8,1.1,20.8,8.2,20.8c8,0,8.6-15.9,8.6-20.8
			C91.2,159.8,83.5,159.6,82.6,159.6z"/>
	</g>
	<g id="Kiss" class="st3">
		<g id="Beard_2_" class="st4">
			<g>
				<path class="st5" d="M114.9,152.9c8.6,0,17.3-24.7,17.3-38.3c0,0,0,16,0,29.6c0,29.6-24.7,62.3-49.4,62.3s-49.4-32.7-49.4-62.3
					c0-13.6,0-29.6,0-29.6c0,13.6,8.6,38.3,17.3,38.3c8.6,0,12.3-13,32.1-13S105,152.9,114.9,152.9z"/>
				<path d="M82.8,209.1c-25.7,0-51.8-33-51.8-64.8v-29.6h4.9c0,14.4,8.9,35.8,14.8,35.8c2.6,0,4.8-1.6,7.8-3.8
					c4.9-3.6,11.6-9.1,24.3-9.1c12.4,0,18.5,5.2,23.4,8.9c3.2,2.4,5.5,4.1,8.7,4.1c6,0,14.8-21.4,14.8-35.8h4.9v29.5
					C134.7,176.1,108.5,209.1,82.8,209.1z M35.9,138.3v6c0,28.8,24.1,59.8,46.9,59.8s46.9-31.1,46.9-59.8v-6
					c-3.6,9.3-8.8,17.1-14.8,17.1c-4.9,0-8.2-2.5-11.7-5.1c-4.5-3.4-9.6-7.9-20.4-7.9c-11.1,0-16.5,4.6-21.3,8.2
					c-3.3,2.5-6.5,4.8-10.8,4.8C44.7,155.4,39.5,147.6,35.9,138.3z"/>
			</g>
			<path class="st6" d="M82.8,204.1c22.8,0,46.9-31.1,46.9-59.8v-6c-1.5,3.8-3.2,7.3-5.1,10.2C124.6,174.1,102.8,204.1,82.8,204.1z"
				/>
			<path class="st7" d="M41,148.4c-0.9-1.4-1.8-2.9-2.7-4.6c-0.1,0.1-0.2,0.2-0.3,0.3c-0.7,0.8-1.4,1.5-2.1,2.1
				c1,28.2,24.6,57.9,46.8,57.9C61.4,204.1,42.9,174.4,41,148.4z"/>
		</g>
		<g class="st4">
			<path class="st10" d="M61.9,164c0,9.3,7.4,16,20.9,16c13.6,0,20.9-6.7,20.9-16c0-8-12.3-13.3-20.9-13.3S61.9,156,61.9,164z"/>
			<path d="M82.8,182.7c-14.2,0-23.3-7.4-23.3-18.8c0-10,13.6-16.1,23.3-16.1s23.3,6.1,23.3,16.1C106.2,175.4,97,182.7,82.8,182.7z
				 M82.8,153.4c-8.2,0-18.5,5-18.5,10.6c0,8.2,7.1,13.3,18.5,13.3s18.5-5.1,18.5-13.3C101.4,158.4,91,153.4,82.8,153.4z"/>
		</g>
		<path class="st4" d="M82.8,170.1c-4.5,0-8.6-2.2-11.3-5.9c-0.8-1.1-0.5-2.6,0.6-3.3c1.1-0.8,2.6-0.5,3.3,0.6
			c1.8,2.5,4.5,3.9,7.4,3.9s5.6-1.4,7.4-3.9c0.8-1.1,2.3-1.3,3.3-0.6c1.1,0.8,1.3,2.3,0.6,3.3C91.4,167.9,87.3,170.1,82.8,170.1z"/>
		<path class="st4" d="M77.2,171.7c-0.9-1.1-0.7-2.9,0.6-3.7c1-0.6,2.4-0.4,3.2,0.6c0.9,1.1,2.2,1.1,2.8,1.1c1-0.1,1.5-0.5,1.6-0.9
			c0.4-1.8-1-2.7-2.3-3.1c-0.2-0.1-0.3-0.4-0.1-0.5c1.5-0.7,3.2-2.3,2.1-3.4c-1.2-1.2-3.7-0.4-4.7,0c-1.4,0.5-3-0.4-3.2-2
			c-0.2-1.2,0.6-2.3,1.8-2.7c3-1,8.5-1.4,10.7,2.7c0.6,1.2,0.7,2.4,0.2,3.6c-0.3,0.7-0.7,1.3-1.2,1.8c1.3,1.3,2,3,1.6,5
			c-0.5,2-2.3,3.6-4.8,4.2c-0.6,0.1-1.3,0.2-2,0.2C81.4,174.6,79,173.8,77.2,171.7z M85.6,169L85.6,169L85.6,169z"/>
	</g>
	<g id="F_2_" class="st3">
		<g id="Beard_20_" class="st4">
			<g>
				<path class="st5" d="M114.9,152.9c8.6,0,17.3-24.7,17.3-38.3c0,0,0,16,0,29.6c0,29.6-24.7,61.7-49.4,61.7s-49.4-32.1-49.4-61.7
					c0-13.6,0-29.6,0-29.6c0,13.6,8.6,38.3,17.3,38.3c8.6,0,12.3-9.9,32.1-9.9S105,152.9,114.9,152.9z"/>
				<path d="M82.8,208.4C57.1,208.4,31,176,31,144.2v-29.6h4.9c0,14.4,8.9,35.8,14.8,35.8c2.8,0,5-1.3,8-3.1
					c4.8-2.9,11.5-6.8,24-6.8c12.2,0,18.3,3.6,23.1,6.5c3.2,1.9,5.5,3.3,8.9,3.3c6,0,14.8-21.4,14.8-35.8h4.9v29.8
					C134.7,176.1,108.5,208.4,82.8,208.4z M35.9,138.3v6c0,28.8,24.1,59.2,46.9,59.2s46.9-30.4,46.9-59.2v-6
					c-3.6,9.3-8.8,17.1-14.8,17.1c-4.8,0-8-2-11.5-4c-4.6-2.7-9.7-5.8-20.6-5.8c-11.2,0-16.9,3.4-21.5,6.1
					c-3.3,1.9-6.4,3.8-10.5,3.8C44.7,155.4,39.5,147.6,35.9,138.3z"/>
			</g>
			<path class="st6" d="M82.8,203.5c22.8,0,46.9-30.4,46.9-59.2v-6c-1.5,3.8-3.2,7.3-5.1,10.2C124.6,174.1,102.8,203.5,82.8,203.5z"
				/>
			<path class="st7" d="M41,148.4c-0.9-1.4-1.8-2.9-2.7-4.6c-0.1,0.1-0.2,0.2-0.3,0.3c-0.7,0.8-1.4,1.5-2.1,2.1
				c1,28.2,24.6,57.3,46.8,57.3C61.4,203.5,42.9,174.4,41,148.4z"/>
		</g>
		<path class="st11" d="M104,158.9c0,0-9.2-4.9-21.4-4.9c-12.3,0-21.4,4.9-21.4,4.9l3.3,5H101L104,158.9z"/>
		<path class="st4" d="M64.6,166.7c-0.7,0-1.4-0.4-1.7-1l-3.1-5.9c-0.5-0.9-0.2-2.1,0.7-2.6c0.3-0.2,6.8-4,22-4
			c15.1,0,22.4,3.8,22.7,3.9c1,0.5,1.3,1.7,0.8,2.7l-3.1,5.9c-0.5,1-1.7,1.3-2.7,0.8s-1.3-1.7-0.8-2.7l2.1-4c-2.9-1-9.1-2.7-19-2.7
			c-9.7,0-15.6,1.7-18.2,2.7l2.1,4c0.5,1,0.1,2.2-0.8,2.7C65.2,166.6,64.9,166.7,64.6,166.7z"/>
		<path class="st4" d="M61.4,169.3c-0.5,0-1-0.1-1.4-0.4c-1.1-0.8-1.4-2.3-0.6-3.4c0.3-0.4,3.1-4.2,9.8-4.6c3.7-0.2,6.7,0.5,8.5,1.2
			c1.3,0.5,1.9,1.9,1.4,3.2s-1.9,1.9-3.2,1.4c-1.4-0.5-3.6-1.1-6.4-0.9c-4.3,0.3-6,2.5-6,2.5C63,169,62.2,169.3,61.4,169.3z"/>
		<path class="st4" d="M88.1,170.8c-0.5,0-0.9-0.1-1.3-0.4c-1.1-0.7-1.5-2.3-0.7-3.4c2.2-3.4,5.7-5.4,9.6-5.6
			c6.3-0.3,10.3,2.8,10.5,2.9c1.1,0.9,1.2,2.4,0.4,3.5c-0.9,1.1-2.4,1.2-3.5,0.4c-0.1-0.1-2.8-2.1-7.1-1.9c-3.3,0.2-5.1,2.4-5.7,3.4
			C89.7,170.4,88.9,170.8,88.1,170.8z"/>
		<path class="st4" d="M74.5,169.3c-0.5,0-0.9-0.1-1.3-0.4c-1.1-0.7-1.5-2.3-0.7-3.4c2.2-3.4,5.7-5.4,9.6-5.6
			c4.5-0.2,7.8,1.3,9.4,2.2c1.2,0.7,1.6,2.2,0.9,3.4c-0.7,1.2-2.2,1.6-3.4,0.9c-1.1-0.6-3.4-1.7-6.6-1.5c-3.3,0.2-5.1,2.4-5.7,3.4
			C76.1,169,75.4,169.3,74.5,169.3z"/>
	</g>
	<g id="W-Oo" class="st3">
		<g id="Beard_27_" class="st4">
			<path class="st5" d="M114.9,152.9c8.6,0,17.3-24.7,17.3-38.3c0,0,0,16,0,29.6c0,29.6-20.1,62.9-49.4,62.9s-49.4-33.3-49.4-62.9
				c0-13.6,0-29.6,0-29.6c0,13.6,8.6,38.3,17.3,38.3c8.6,0,12.3-8.6,32.1-8.6S105,152.9,114.9,152.9z"/>
			<path class="st6" d="M82.8,207.2c32.8,0,48-34.6,48.5-65.2l-1.1-5.5c-2,5.6-3.7,7-5.7,9.9C124.6,177.6,102.8,207.2,82.8,207.2z"
				/>
			<path class="st7" d="M41,147.2c-0.9-1.4-2-3.2-2.8-4.8c-0.1,0.1-1.1,1.3-1.2,1.4c-0.7,0.8-1.4,2-2.1,2.6
				c1,28.2,14,60.8,47.9,60.8C61.4,207.2,42.9,175.7,41,147.2z"/>
			<path d="M82.8,212.1c-12,0-25-8.2-35.6-22.6C37.1,175.8,31,158.9,31,144.2v-29.6h4.9c0,14.4,8.9,35.8,14.8,35.8
				c2.8,0,5.1-1.2,8.2-2.7c4.8-2.5,11.4-5.9,23.9-5.9c12.2,0,18.2,3.2,23,5.7c3.1,1.6,5.6,2.9,9.1,2.9c6,0,14.8-21.4,14.8-35.8h4.9
				v29.7c0,14.6-6.1,31.6-16.2,45.3C107.9,203.9,94.9,212.1,82.8,212.1z M35.9,138.3v6c0,29.4,25,62.9,46.9,62.9
				s46.9-33.5,46.9-62.9v-6c-3.6,9.3-8.8,17.1-14.8,17.1c-4.7,0-7.9-1.7-11.4-3.5c-4.6-2.4-9.8-5.1-20.7-5.1c-11.3,0-17,3-21.7,5.3
				c-3.3,1.7-6.4,3.3-10.4,3.3C44.7,155.4,39.5,147.6,35.9,138.3z"/>
		</g>
		<path class="st4" d="M73.2,167.1c0,10,4.7,12.8,9.4,12.8s9.9-2.8,9.9-12.8c0-8.5-6.9-10-9.9-10S73.2,158.6,73.2,167.1z"/>
		<path class="st8" d="M74.7,177.5c0,0,2.3-6,8.1-6s8.2,6,8.2,6s-3.1,3.5-8.2,3.5S74.7,177.5,74.7,177.5z"/>
		<path class="st9" d="M83.3,171.5c-0.2,0-0.4,0-0.5,0c-5.8,0-8.1,6-8.1,6s0.1,0.5,0.4,1.3c0.3,0.8,1.4,0.9,1.8,0.1
			C79.1,173.9,82,172.1,83.3,171.5z"/>
		<path class="st4" d="M82.6,182.4c-3.6,0-11.9-1.5-11.9-15.3c0-9.2,6.4-12.4,11.9-12.4s11.9,3.3,11.9,12.4
			C94.5,180.9,86.2,182.4,82.6,182.4z M82.6,159.6c-2.1,0-7,0.7-7,7.5c0,6.9,2.3,10.3,7,10.3c4.6,0,7-3.5,7-10.3
			S84.7,159.6,82.6,159.6z"/>
	</g>
	<g id="Uh_1_" class="st3">
		<g id="Beard_26_" class="st4">
			<g>
				<path class="st5" d="M114.9,152.9c8.6,0,17.3-24.7,17.3-38.3c0,0,0,16,0,29.6c0,29.6-24.7,62.9-49.4,62.9s-49.4-33.3-49.4-62.9
					c0-13.6,0-29.6,0-29.6c0,13.6,8.6,38.3,17.3,38.3c8.6,0,12.3-9.9,32.1-9.9S105,152.9,114.9,152.9z"/>
				<path d="M82.8,209.7c-12.4,0-25.5-7.8-35.9-21.3c-10-13-15.9-29.5-15.9-44.1v-29.6h4.9c0,14.4,8.9,35.8,14.8,35.8
					c2.8,0,5-1.3,8-3.1c4.8-2.9,11.5-6.8,24-6.8c12.2,0,18.3,3.6,23.1,6.5c3.2,1.9,5.5,3.3,8.9,3.3c6,0,14.8-21.4,14.8-35.8h4.9
					v29.7c0,14.6-6,31.1-15.9,44.1C108.3,201.9,95.2,209.7,82.8,209.7z M35.9,138.3v6c0,29.4,24.1,60.5,46.9,60.5
					s46.9-31.1,46.9-60.5v-6c-3.6,9.3-8.8,17.1-14.8,17.1c-4.8,0-8-2-11.5-4c-4.6-2.7-9.7-5.8-20.6-5.8c-11.2,0-16.9,3.4-21.5,6.1
					c-3.3,1.9-6.4,3.8-10.5,3.8C44.7,155.4,39.5,147.6,35.9,138.3z"/>
			</g>
			<path class="st6" d="M82.8,204.7c22.8,0,46.9-31.7,46.9-60.5v-6c-1.5,3.8-3.2,7.3-5.1,10.2C124.6,174.1,102.8,204.7,82.8,204.7z"
				/>
			<path class="st7" d="M41,148.4c-0.9-1.4-1.8-2.9-2.7-4.6c-0.1,0.1-0.2,0.2-0.3,0.3c-0.7,0.8-1.4,1.5-2.1,2.1
				c1,28.2,24.6,58.5,46.8,58.5C61.4,204.7,42.9,174.4,41,148.4z"/>
		</g>
		<path class="st4" d="M65.4,164c0,8.6,6.1,18.5,17.3,18.5S100,172.6,100,164c0-7.4-10.2-3.7-17.3-3.7S65.4,156.6,65.4,164z"/>
		<path class="st8" d="M72.3,176.7c0,0,3-5.9,10.5-5.9s10.7,5.9,10.7,5.9s-3.9,5.9-10.7,5.9S72.3,176.7,72.3,176.7z"/>
		<path class="st9" d="M83.5,170.8c-0.2,0-0.5,0-0.7,0c-7.5,0-10.5,5.9-10.5,5.9s0.6,1.6,1.7,3.6C77,173.6,81.5,171.4,83.5,170.8z"
			/>
		<path class="st11" d="M64.3,162.8c0,0,8.4,0.1,17.6,0.1s18.4-0.1,18.4-0.1s0.7-1.7-2.4-4.6c-4.8-4.5-28.5-3.2-31.6-0.1
			C64.3,160.1,64.3,162.8,64.3,162.8z"/>
		<path class="st4" d="M82.7,185c-12.4,0-19.8-10.7-19.8-21c0-8.5,10-12.3,19.8-12.3c9.9,0,19.8,3.8,19.8,12.3
			C102.6,174.3,95.1,185,82.7,185z M82.7,156.6c-6,0-14.9,2-14.9,7.4c0,6.7,4.6,16,14.9,16s14.9-9.4,14.9-16
			C97.6,158.6,88.7,156.6,82.7,156.6z"/>
	</g>
	<g id="S" class="st3">
		<g id="Beard_23_" class="st4">
			<g>
				<path class="st5" d="M114.9,152.9c8.6,0,17.3-24.7,17.3-38.3c0,0,0,16,0,29.6c0,29.6-24.7,61.7-49.4,61.7s-49.4-32.1-49.4-61.7
					c0-13.6,0-29.6,0-29.6c0,13.6,8.6,38.3,17.3,38.3c8.6,0,12.3-12.3,32.1-12.3S105,152.9,114.9,152.9z"/>
				<path d="M82.8,208.4C57.1,208.4,31,176,31,144.2v-29.6h4.9c0,14.4,8.9,35.8,14.8,35.8c2.6,0,4.8-1.6,7.8-3.8
					c4.9-3.6,11.6-8.5,24.3-8.5c12.4,0,18.5,4.6,23.4,8.2c3.2,2.4,5.5,4.1,8.7,4.1c5.9,0,14.8-21.2,14.9-35.6c0-0.1,0-0.2,0-0.2h4.9
					l0,0l0,0l0,0c0,0.1,0,0.1,0,0.2c0,1.8,0,16.7,0,29.4C134.7,176.1,108.5,208.4,82.8,208.4z M35.9,138.3v6
					c0,28.8,24.1,59.2,46.9,59.2s46.9-30.4,46.9-59.2c0-1.9,0-3.9,0-5.9c-3.6,9.3-8.8,17-14.8,17c-4.9,0-8.2-2.5-11.7-5.1
					c-4.5-3.4-9.6-7.2-20.4-7.2c-11.1,0-16.5,4-21.3,7.5c-3.3,2.5-6.5,4.8-10.8,4.8C44.7,155.4,39.5,147.6,35.9,138.3z"/>
			</g>
			<path class="st6" d="M82.8,203.5c22.8,0,46.9-30.4,46.9-59.2v-6c-1.5,3.8-3.2,7.3-5.1,10.2C124.6,174.1,102.8,203.5,82.8,203.5z"
				/>
			<path class="st7" d="M41,148.4c-0.9-1.4-1.8-2.9-2.7-4.6c-0.1,0.1-0.2,0.2-0.3,0.3c-0.7,0.8-1.4,1.5-2.1,2.1
				c1,28.2,24.6,57.3,46.8,57.3C61.4,203.5,42.9,174.4,41,148.4z"/>
		</g>
		<path class="st4" d="M67.4,161.4c0,6.4,4.1,13.2,15.5,13.2s15.5-6.7,15.5-13.2c0-5.5-8.3-9.2-15.5-9.2S67.4,155.9,67.4,161.4z"/>
		<path class="st11" d="M67.5,161.7c0,5.9,0.3,11.9,15.3,11.9s15.3-6,15.3-11.9c0-5.1,0.5-8.4-15.3-8.4S67.5,156.6,67.5,161.7z"/>
		<rect x="67.5" y="160.8" class="st4" width="30.7" height="4.9"/>
		<path class="st4" d="M82.8,176c-16.4,0-17.8-7.1-17.8-14.4v-0.4c0-2.3,0-5,2.1-7.1c2.4-2.4,7-3.4,15.7-3.4c8.8,0,13.3,1,15.7,3.4
			c2.1,2.1,2.1,4.8,2.1,7.1v0.4C100.6,168.9,99.3,176,82.8,176z M82.8,155.7c-6.8,0-10.9,0.7-12.2,1.9c-0.6,0.6-0.6,1.7-0.6,3.6v0.4
			c0,5.3,0,9.4,12.9,9.4s12.9-4.2,12.9-9.4v-0.4c0-1.9,0-3-0.6-3.6C93.8,156.4,89.7,155.7,82.8,155.7z"/>
	</g>
	<g id="R_1_" class="st3">
		<g id="Beard_24_" class="st4">
			<path class="st5" d="M114.9,152.9c8.6,0,17.3-24.7,17.3-38.3c0,0,0,16,0,29.6c0,29.6-20.1,60.5-49.4,60.5s-49.4-30.8-49.4-60.5
				c0-13.6,0-29.6,0-29.6c0,13.6,8.6,38.3,17.3,38.3c8.6,0,12.3-8.6,32.1-8.6S105,152.9,114.9,152.9z"/>
			<path class="st6" d="M82.8,202.3c32.8,0,48-29.7,48.5-60.3l-1.1-5.5c-2,5.6-3.7,7-5.7,9.9C124.6,177.6,102.8,202.3,82.8,202.3z"
				/>
			<path class="st7" d="M41,147.2c-0.9-1.4-2-3.2-2.8-4.8c-0.1,0.1-1.1,1.3-1.2,1.4c-0.7,0.8-1.4,2-2.1,2.6
				c1,28.2,14,55.9,47.9,55.9C61.4,202.3,42.9,175.7,41,147.2z"/>
			<path d="M82.8,206C56.2,206,31,176,31,144.3v-29.6h4.9c0,14.4,8.9,35.8,14.8,35.8c2.8,0,5.1-1.2,8.2-2.7
				c4.8-2.5,11.4-5.9,23.9-5.9c12.2,0,18.2,3.2,23,5.7c3.1,1.6,5.6,2.9,9.1,2.9c6,0,14.8-21.4,14.8-35.8h4.9v29.6
				C134.7,176,109.5,206,82.8,206z M35.9,138.3v6c0,28.6,23.2,56.8,46.9,56.8s46.9-28.1,46.9-56.8v-6c-3.6,9.3-8.8,17.1-14.8,17.1
				c-4.7,0-7.9-1.7-11.4-3.5c-4.6-2.4-9.8-5.1-20.7-5.1c-11.3,0-17,3-21.7,5.3c-3.3,1.7-6.4,3.3-10.4,3.3
				C44.7,155.4,39.5,147.6,35.9,138.3z"/>
		</g>
		<path class="st4" d="M71.2,166.3c0,9.7,5.9,12.5,11.9,12.5c5.9,0,12.4-2.8,12.4-12.5c0-8.3-8.6-9.7-12.4-9.7
			C79.4,156.6,71.2,158,71.2,166.3z"/>
		<path class="st8" d="M75.6,175.2c0,0,1.2-9.7,7.5-9.7s7.6,9.7,7.6,9.7s0.6,4.2-7.2,4.2C75.7,179.4,75.6,175.2,75.6,175.2z"/>
		<path class="st9" d="M80.7,166c-4.3,2-5.1,9.2-5.1,9.2s0.1,1.8,2.4,3.1C77.8,171.6,80.6,166.3,80.7,166z"/>
		<path class="st11" d="M71.2,166.3c0,0,6.8-1.3,12-1.3s11.8,1.3,11.8,1.3s-0.2-3.3-1.9-6.6c-2.7-5.1-18.5-3.6-20.2-0.2
			C71.7,161.9,71.2,166.3,71.2,166.3z"/>
		<path class="st4" d="M71.2,168.2c-0.6,0-1.1-0.4-1.2-1c-0.1-0.7,0.3-1.3,1-1.4c0.3-0.1,7-1.3,12.2-1.3s11.8,1.3,12.1,1.3
			c0.7,0.1,1.1,0.8,1,1.4c-0.1,0.7-0.8,1.1-1.4,1c-0.1,0-6.6-1.3-11.6-1.3s-11.7,1.3-11.7,1.3C71.3,168.2,71.3,168.2,71.2,168.2z"/>
		<path class="st4" d="M83.1,181.3c-9,0-14.4-5.6-14.4-15c0-9,7.7-12.2,14.4-12.2c6.6,0,14.4,3.2,14.4,12.2
			C97.5,175.7,92.1,181.3,83.1,181.3z M83.1,159.1c-2.2,0-9.4,0.5-9.4,7.2s3.1,10,9.4,10c6.3,0,9.4-3.3,9.4-10
			C92.6,159.6,85.3,159.1,83.1,159.1z"/>
	</g>
	<g id="Oh" class="st3">
		<g id="Beard_1_" class="st4">
			<path class="st5" d="M114.9,152.9c8.6,0,17.3-24.7,17.3-38.3c0,0,0,16,0,29.6c0,29.6-20.1,62.9-49.4,62.9s-49.4-33.3-49.4-62.9
				c0-13.6,0-29.6,0-29.6c0,13.6,8.6,38.3,17.3,38.3c8.6,0,12.3-8.6,32.1-8.6S105,152.9,114.9,152.9z"/>
			<path class="st6" d="M82.8,207.2c32.8,0,48-34.6,48.5-65.2l-1.1-5.5c-2,5.6-3.7,7-5.7,9.9C124.6,177.6,102.8,207.2,82.8,207.2z"
				/>
			<path class="st7" d="M41,147.2c-0.9-1.4-2-3.2-2.8-4.8c-0.1,0.1-1.1,1.3-1.2,1.4c-0.7,0.8-1.4,2-2.1,2.6
				c1,28.2,14,60.8,47.9,60.8C61.4,207.2,42.9,175.7,41,147.2z"/>
			<path d="M82.8,212.1c-12,0-25-8.2-35.6-22.6C37.1,175.8,31,158.9,31,144.2v-29.6h4.9c0,14.4,8.9,35.8,14.8,35.8
				c2.8,0,5.1-1.2,8.2-2.7c4.8-2.5,11.4-5.9,23.9-5.9c12.2,0,18.2,3.2,23,5.7c3.1,1.6,5.6,2.9,9.1,2.9c6,0,14.8-21.4,14.8-35.8h4.9
				v29.7c0,14.6-6.1,31.6-16.2,45.3C107.9,203.9,94.9,212.1,82.8,212.1z M35.9,138.3v6c0,29.4,25,62.9,46.9,62.9
				s46.9-33.5,46.9-62.9v-6c-3.6,9.3-8.8,17.1-14.8,17.1c-4.7,0-7.9-1.7-11.4-3.5c-4.6-2.4-9.8-5.1-20.7-5.1c-11.3,0-17,3-21.7,5.3
				c-3.3,1.7-6.4,3.3-10.4,3.3C44.7,155.4,39.5,147.6,35.9,138.3z"/>
		</g>
		<path class="st4" d="M73.2,167.1c0,10,4.7,12.8,9.4,12.8s9.9-2.8,9.9-12.8c0-8.5-6.9-10-9.9-10S73.2,158.6,73.2,167.1z"/>
		<path class="st8" d="M74.7,177.5c0,0,2.3-6,8.1-6s8.2,6,8.2,6s-3.1,3.5-8.2,3.5S74.7,177.5,74.7,177.5z"/>
		<path class="st9" d="M83.3,171.5c-0.2,0-0.4,0-0.5,0c-5.8,0-8.1,6-8.1,6s0.4,1.7,1.3,3.7C78.3,174.5,81.8,172.2,83.3,171.5z"/>
		<path class="st4" d="M82.6,182.4c-3.6,0-11.9-1.5-11.9-15.3c0-9.2,6.4-12.4,11.9-12.4s11.9,3.3,11.9,12.4
			C94.5,180.9,86.2,182.4,82.6,182.4z M82.6,159.6c-2.1,0-7,0.7-7,7.5c0,6.9,2.3,10.3,7,10.3c4.6,0,7-3.5,7-10.3
			S84.7,159.6,82.6,159.6z"/>
	</g>
	<g id="M_2_" class="st3">
		<g id="Beard_22_" class="st4">
			<g>
				<path class="st5" d="M114.9,152.9c8.6,0,17.3-24.7,17.3-38.3c0,0,0,16,0,29.6c0,29.6-24.7,61.7-49.4,61.7s-49.4-32.1-49.4-61.7
					c0-13.6,0-29.6,0-29.6c0,13.6,8.6,38.3,17.3,38.3c8.6,0,12.3-12.3,32.1-12.3S105,152.9,114.9,152.9z"/>
				<path d="M82.8,208.4C57.1,208.4,31,176,31,144.2v-29.6h4.9c0,14.4,8.9,35.8,14.8,35.8c2.6,0,4.8-1.6,7.8-3.8
					c4.9-3.6,11.6-8.5,24.3-8.5c12.4,0,18.5,4.6,23.4,8.2c3.2,2.4,5.5,4.1,8.7,4.1c6,0,14.8-21.4,14.8-35.8h4.9v29.7
					C134.7,176.1,108.5,208.4,82.8,208.4z M35.9,138.3v6c0,28.8,24.1,59.2,46.9,59.2s46.9-30.4,46.9-59.2v-6
					c-3.6,9.3-8.8,17.1-14.8,17.1c-4.9,0-8.2-2.5-11.7-5.1c-4.5-3.4-9.6-7.2-20.4-7.2c-11.1,0-16.5,4-21.3,7.5
					c-3.3,2.5-6.5,4.8-10.8,4.8C44.7,155.4,39.5,147.6,35.9,138.3z"/>
			</g>
			<path class="st6" d="M82.8,203.5c22.8,0,46.9-30.4,46.9-59.2v-6c-1.5,3.8-3.2,7.3-5.1,10.2C124.6,174.1,102.8,203.5,82.8,203.5z"
				/>
			<path class="st7" d="M41,148.4c-0.9-1.4-1.8-2.9-2.7-4.6c-0.1,0.1-0.2,0.2-0.3,0.3c-0.7,0.8-1.4,1.5-2.1,2.1
				c1,28.2,24.6,57.3,46.8,57.3C61.4,203.5,42.9,174.4,41,148.4z"/>
		</g>
		<g class="st4">
			<path class="st10" d="M59.4,164c0,8.6,9.9,14.8,23.4,14.8s23.4-6.2,23.4-14.8c0-7.4-14.8-12.3-23.4-12.3S59.4,156.6,59.4,164z"/>
			<path d="M82.8,181.3c-15,0-25.9-7.3-25.9-17.3c0-9.7,16.9-14.8,25.9-14.8s25.9,5.1,25.9,14.8C108.7,174,97.8,181.3,82.8,181.3z
				 M82.8,154.1c-8.8,0-21,5-21,9.9c0,7.1,8.8,12.3,21,12.3s21-5.2,21-12.3C103.8,159.1,91.6,154.1,82.8,154.1z"/>
		</g>
		<path class="st4" d="M82.8,169.1c-6.8,0-12.9-0.4-13.1-0.4c-1.6-0.1-2.8-1.5-2.7-3.1s1.5-2.8,3.1-2.7c0.1,0,6.1,0.4,12.7,0.4
			c6.6,0,12.7-0.4,12.7-0.4c1.6-0.1,3,1.1,3.1,2.7c0.1,1.6-1.1,3-2.7,3.1C95.7,168.7,89.6,169.1,82.8,169.1z"/>
	</g>
	<g id="L_2_" class="st3">
		<g id="Beard_21_" class="st4">
			<g>
				<path class="st5" d="M114.9,152.9c8.6,0,17.3-24.7,17.3-38.3c0,0,0,16,0,29.6c0,29.6-24.7,60.5-49.4,60.5s-49.4-30.8-49.4-60.5
					c0-13.6,0-29.6,0-29.6c0,13.6,8.6,38.3,17.3,38.3c8.6,0,12.3-7.4,32.1-7.4S105,152.9,114.9,152.9z"/>
				<path d="M82.8,207.2c-25.7,0-51.8-31.8-51.8-62.9v-29.6h4.9c0,14.4,8.9,35.8,14.8,35.8c2.9,0,5.2-1,8.3-2.4
					c5.1-2.2,11.4-5,23.8-5c12.1,0,18.1,2.7,22.9,4.9c3.2,1.4,5.6,2.5,9.2,2.5c6,0,14.8-21.4,14.8-35.8h4.9v29.6
					C134.7,175.4,108.5,207.2,82.8,207.2z M35.9,138.3v6c0,28.7,23.7,58,46.9,58s46.9-29.3,46.9-58v-6c-3.6,9.3-8.8,17.1-14.8,17.1
					c-4.6,0-7.8-1.4-11.2-3c-4.6-2.1-9.8-4.4-20.9-4.4c-11.4,0-17.1,2.6-21.8,4.6c-3.3,1.4-6.3,2.8-10.3,2.8
					C44.7,155.4,39.5,147.6,35.9,138.3z"/>
			</g>
			<path class="st6" d="M82.8,202.3c22.8,0,46.9-29.2,46.9-58v-6c-1.5,3.8-3.2,7.3-5.1,10.2C124.6,174.1,102.8,202.3,82.8,202.3z"/>
			<path class="st7" d="M41,148.4c-0.9-1.4-1.8-2.9-2.7-4.6c-0.1,0.1-0.2,0.2-0.3,0.3c-0.7,0.8-1.4,1.5-2.1,2.1
				c1,28.2,24.6,56.1,46.8,56.1C61.4,202.3,42.9,174.4,41,148.4z"/>
		</g>
		<path class="st4" d="M59.2,165.2c0,8.6,11.4,11.1,22.8,11.1c11.4,0,23.8-2.5,23.8-11.1c0-7.4-16.6-8.6-23.8-8.6
			C74.8,156.6,59.2,157.8,59.2,165.2z"/>
		<path class="st8" d="M74.1,172.7c0,0,1.4-9.6,8.7-9.6s8.8,9.6,8.8,9.6s0.7,4.1-8.3,4.1C74.2,176.8,74.1,172.7,74.1,172.7z"/>
		<path class="st9" d="M80,163.7c-4.9,2-5.9,9-5.9,9s0.1,1.8,2.8,3C76.6,169.1,79.9,164,80,163.7z"/>
		<path class="st11" d="M57.8,165.2c0,0,14.2-1.2,25-1.2s24.8,1.2,24.8,1.2s-0.3-2.9-4-5.9c-5.6-4.5-38.8-3.2-42.4-0.1
			C58.9,161.3,57.8,165.2,57.8,165.2z"/>
		<path class="st4" d="M105.9,167.1h-0.1c-0.1,0-13-1.2-22.8-1.2s-22.9,1.1-23.1,1.2c-0.7,0.1-1.3-0.4-1.3-1.1
			c-0.1-0.7,0.4-1.3,1.1-1.3c0.1,0,13.3-1.2,23.3-1.2c9.9,0,22.9,1.2,23.1,1.2c0.7,0.1,1.2,0.7,1.1,1.3
			C107.1,166.6,106.5,167.1,105.9,167.1z"/>
		<path class="st4" d="M82.8,178.8c-6.6,0-25.5-2.5-25.5-13.6c0-10.3,10.1-11.1,25.5-11.1s25.5,0.8,25.5,11.1
			C108.3,176.3,89.4,178.8,82.8,178.8z M82.8,159.1c-17.5,0-20.6,1.6-20.6,6.2c0,5.8,13.2,8.6,20.6,8.6c7.4,0,20.6-2.9,20.6-8.6
			C103.4,160.7,100.3,159.1,82.8,159.1z"/>
	</g>
	<g id="Ee_2_" class="st3">
		<g id="Beard_19_" class="st4">
			<path class="st5" d="M114.9,152.9c8.6,0,17.3-24.7,17.3-38.3c0,0,0,16,0,29.6c0,29.6-20.1,60.5-49.4,60.5s-49.4-30.8-49.4-60.5
				c0-13.6,0-29.6,0-29.6c0,13.6,8.6,38.3,17.3,38.3c8.6,0,12.3-8.6,32.1-8.6S105,152.9,114.9,152.9z"/>
			<path class="st6" d="M82.8,202.3c32.8,0,48-29.7,48.5-60.3l-1.1-5.5c-2,5.6-3.7,7-5.7,9.9C124.6,177.6,102.8,202.3,82.8,202.3z"
				/>
			<path class="st7" d="M41,147.2c-0.9-1.4-2-3.2-2.8-4.8c-0.1,0.1-1.1,1.3-1.2,1.4c-0.7,0.8-1.4,2-2.1,2.6
				c1,28.2,14,55.9,47.9,55.9C61.4,202.3,42.9,175.7,41,147.2z"/>
			<path d="M82.8,207.2c-31,0-51.8-32.5-51.8-62.9v-29.6h4.9c0,14.4,8.9,35.8,14.8,35.8c2.8,0,5.1-1.2,8.2-2.7
				c4.8-2.5,11.4-5.9,23.9-5.9c12.2,0,18.2,3.2,23,5.7c3.1,1.6,5.6,2.9,9.1,2.9c6,0,14.8-21.4,14.8-35.8h4.9v29.6
				C134.7,174.7,113.8,207.2,82.8,207.2z M35.9,138.3v6c0,28,18.8,58,46.9,58s46.9-30,46.9-58v-6c-3.6,9.3-8.8,17.1-14.8,17.1
				c-4.7,0-7.9-1.7-11.4-3.5c-4.6-2.4-9.8-5.1-20.7-5.1c-11.3,0-17,3-21.7,5.3c-3.3,1.7-6.4,3.3-10.4,3.3
				C44.7,155.4,39.5,147.6,35.9,138.3z"/>
		</g>
		<path class="st4" d="M55.7,165.2c0,8.6,13.6,11.1,27.1,11.1s28.4-2.5,28.4-11.1c0-7.4-19.7-8.6-28.4-8.6
			C74.2,156.6,55.7,157.8,55.7,165.2z"/>
		<path class="st11" d="M55.5,162.8c0,0,15.5,0.1,27.3,0.1s27-0.1,27-0.1s-0.4-1.7-4.3-4.6c-6.1-4.5-42.3-3.2-46.2-0.1
			C56.8,160.1,55.5,162.8,55.5,162.8z"/>
		<path class="st11" d="M56.9,170.7h51.8c0,0-7.2,6.2-25,6.2C65.9,176.8,56.9,170.7,56.9,170.7z"/>
		<path class="st4" d="M82.8,178.8c-24.5,0-29.6-7.4-29.6-13.6c0-9.7,18.6-11.1,29.6-11.1c11.1,0,29.6,1.4,29.6,11.1
			C112.4,171.4,107.3,178.8,82.8,178.8z M82.8,159.1c-13.8,0-24.7,2.7-24.7,6.2c0,5.4,9.2,8.6,24.7,8.6s24.7-3.2,24.7-8.6
			C107.5,161.8,96.7,159.1,82.8,159.1z"/>
	</g>
	<g id="D_1_" class="st3">
		<g id="Beard_18_" class="st4">
			<path class="st5" d="M114.9,152.9c8.6,0,17.3-24.7,17.3-38.3c0,0,0,16,0,29.6c0,29.6-20.1,60.5-49.4,60.5s-49.4-30.8-49.4-60.5
				c0-13.6,0-29.6,0-29.6c0,13.6,8.6,38.3,17.3,38.3c8.6,0,12.3-8.6,32.1-8.6S105,152.9,114.9,152.9z"/>
			<path class="st6" d="M82.8,202.3c32.8,0,48-29.7,48.5-60.3l-1.1-5.5c-2,5.6-3.7,7-5.7,9.9C124.6,177.6,102.8,202.3,82.8,202.3z"
				/>
			<path class="st7" d="M41,147.2c-0.9-1.4-2-3.2-2.8-4.8c-0.1,0.1-1.1,1.3-1.2,1.4c-0.7,0.8-1.4,2-2.1,2.6
				c1,28.2,14,55.9,47.9,55.9C61.4,202.3,42.9,175.7,41,147.2z"/>
			<path d="M82.8,207.2c-31,0-51.8-32.5-51.8-62.9v-29.6h4.9c0,14.4,8.9,35.8,14.8,35.8c2.8,0,5.1-1.2,8.2-2.7
				c4.8-2.5,11.4-5.9,23.9-5.9c12.2,0,18.2,3.2,23,5.7c3.1,1.6,5.6,2.9,9.1,2.9c6,0,14.8-21.4,14.8-35.8h4.9v29.6
				C134.7,174.7,113.8,207.2,82.8,207.2z M35.9,138.3v6c0,28,18.8,58,46.9,58s46.9-30,46.9-58v-6c-3.6,9.3-8.8,17.1-14.8,17.1
				c-4.7,0-7.9-1.7-11.4-3.5c-4.6-2.4-9.8-5.1-20.7-5.1c-11.3,0-17,3-21.7,5.3c-3.3,1.7-6.4,3.3-10.4,3.3
				C44.7,155.4,39.5,147.6,35.9,138.3z"/>
		</g>
		<path class="st4" d="M55.7,165.2c0,8.6,13.6,11.1,27.1,11.1s28.4-2.5,28.4-11.1c0-7.4-19.7-8.6-28.4-8.6
			C74.2,156.6,55.7,157.8,55.7,165.2z"/>
		<path class="st8" d="M65.6,173.1c0,0,2.7-8.6,17.2-8.6s17.4,8.6,17.4,8.6s1.4,3.7-16.4,3.7C65.9,176.8,65.6,173.1,65.6,173.1z"/>
		<path class="st9" d="M77.3,165c-9.7,1.8-11.7,8.2-11.7,8.2s0.2,1.6,5.4,2.7C70.6,169.9,77,165.2,77.3,165z"/>
		<path class="st11" d="M55.5,165.2c0,0,15.5-1.2,27.3-1.2s27,1.2,27,1.2s-0.4-2.9-4.3-5.9c-6.1-4.5-42.3-3.2-46.2-0.1
			C56.8,161.3,55.5,165.2,55.5,165.2z"/>
		<path class="st4" d="M109.9,167.1C109.8,167.1,109.8,167.1,109.9,167.1c-0.2,0-15.5-1.2-27-1.2c-11.6,0-27,1.1-27.2,1.2
			c-0.7,0.1-1.3-0.5-1.3-1.1c-0.1-0.7,0.5-1.3,1.1-1.3c0.2,0,15.7-1.2,27.4-1.2s27,1.2,27.1,1.2c0.7,0.1,1.2,0.6,1.1,1.3
			C111.1,166.6,110.5,167.1,109.9,167.1z"/>
		<path class="st4" d="M82.8,178.8c-24.5,0-29.6-7.4-29.6-13.6c0-9.7,18.6-11.1,29.6-11.1c11.1,0,29.6,1.4,29.6,11.1
			C112.4,171.4,107.3,178.8,82.8,178.8z M82.8,159.1c-13.8,0-24.7,2.7-24.7,6.2c0,5.4,9.2,8.6,24.7,8.6s24.7-3.2,24.7-8.6
			C107.5,161.8,96.7,159.1,82.8,159.1z"/>
	</g>
	<g id="Ah_1_" class="st3">
		<g id="Beard_17_" class="st4">
			<g>
				<path class="st5" d="M114.9,152.9c8.6,0,17.3-24.7,17.3-38.3c0,0,0,16,0,29.6c0,29.6-24.7,65.4-49.4,65.4s-49.4-35.8-49.4-65.4
					c0-13.6,0-29.6,0-29.6c0,13.6,8.6,38.3,17.3,38.3c8.6,0,12.3-9.9,32.1-9.9S105,152.9,114.9,152.9z"/>
				<path d="M82.8,212.1c-12.3,0-25.4-8.2-35.9-22.6C36.9,175.9,31,159,31,144.2v-29.6h4.9c0,14.4,8.9,35.8,14.8,35.8
					c2.8,0,5-1.3,8-3.1c4.8-2.9,11.5-6.8,24-6.8c12.2,0,18.3,3.6,23.1,6.5c3.2,1.9,5.5,3.3,8.9,3.3c6,0,14.8-21.4,14.8-35.8h4.9
					v29.8c0,14.7-5.9,31.7-15.9,45.3C108.2,203.9,95.1,212.1,82.8,212.1z M35.9,138.3v6c0,13.7,5.6,29.6,14.9,42.3
					c9.6,13.1,21.2,20.6,31.9,20.6s22.4-7.5,31.9-20.6c9.4-12.8,14.9-28.6,14.9-42.3v-6c-3.6,9.3-8.8,17.1-14.8,17.1
					c-4.8,0-8-2-11.5-4c-4.6-2.7-9.7-5.8-20.6-5.8c-11.2,0-16.9,3.4-21.5,6.1c-3.3,1.9-6.4,3.8-10.5,3.8
					C44.7,155.4,39.5,147.6,35.9,138.3z"/>
			</g>
			<path class="st6" d="M82.8,207.2c22.8,0,46.9-34.1,46.9-62.9v-6c-1.5,3.8-3.2,7.3-5.1,10.2C124.6,174.1,102.8,207.2,82.8,207.2z"
				/>
			<path class="st7" d="M41,148.4c-0.9-1.4-1.8-2.9-2.7-4.6c-0.1,0.1-0.2,0.2-0.3,0.3c-0.7,0.8-1.4,1.5-2.1,2.1
				c1,28.2,24.6,61,46.8,61C61.4,207.2,42.9,174.4,41,148.4z"/>
		</g>
		<path class="st4" d="M61.9,164c0,8.6,7.4,18.5,21,18.5s21-9.9,21-18.5c0-7.4-12.3-3.7-21-3.7S61.9,156.6,61.9,164z"/>
		<path class="st8" d="M67.7,178.2c0,0,4.3-3.7,15.1-3.7s15.4,3.7,15.4,3.7s-5.7,6.8-15.4,6.8S67.7,178.2,67.7,178.2z"/>
		<path class="st9" d="M83.8,174.6c-0.3,0-0.7,0-1,0c-10.8,0-15.1,3.7-15.1,3.7s0.8,1,2.4,2.3C74.4,176.3,81,175,83.8,174.6z"/>
		<path class="st11" d="M60.5,162.8c0,0,10.6,0.1,22.4,0.1c11.8,0,23.3-0.1,23.3-0.1s0.9-1.7-3.1-4.6c-6.1-4.5-36.1-3.2-40-0.1
			C60.5,160.1,60.5,162.8,60.5,162.8z"/>
		<path class="st4" d="M82.8,188.7c-15,0-25.9-14.7-25.9-24.7c0-9.8,17-12.3,25.9-12.3c9,0,25.9,2.6,25.9,12.3
			C108.7,174,97.9,188.7,82.8,188.7z M82.8,156.6c-9.9,0-21,3-21,7.4c0,6.9,8.7,19.7,21,19.7s21-12.8,21-19.7
			C103.8,159.6,92.7,156.6,82.8,156.6z"/>
	</g>
	<g id="Surprised_2_">
		<g id="Beard_16_">
			<g>
				<path class="st12" d="M114.9,152.9c8.6,0,17.3-24.7,17.3-38.3c0,0,0,16,0,29.6c0,29.6-24.7,67.9-49.4,67.9s-49.4-38.3-49.4-67.9
					c0-13.6,0-29.6,0-29.6c0,13.6,8.6,38.3,17.3,38.3c8.6,0,12.3-12.3,32.1-12.3S105,152.9,114.9,152.9z"/>
				<path class="st2" d="M82.8,214.6C56.1,214.6,31,175,31,144.3v-29.6h4.9c0,14.4,8.9,35.8,14.8,35.8c2.6,0,4.8-1.6,7.8-3.8
					c4.9-3.6,11.6-8.5,24.3-8.5c12.4,0,18.5,4.6,23.4,8.2c3.2,2.4,5.5,4.1,8.7,4.1c6,0,14.9-21.4,14.9-35.8h1.2l1-0.5l1.1,0.5h1.5
					v29.6C134.7,175,109.5,214.6,82.8,214.6z M35.9,138.3v6c0,28,23.2,65.4,46.9,65.4s46.9-37.4,46.9-65.4v-6
					c-3.6,9.3-8.8,17.1-14.8,17.1c-4.9,0-8.2-2.5-11.7-5.1c-4.5-3.4-9.6-7.2-20.4-7.2c-11.1,0-16.5,4-21.3,7.5
					c-3.3,2.5-6.5,4.8-10.8,4.8C44.7,155.4,39.5,147.6,35.9,138.3z"/>
			</g>
			<path class="st13" d="M82.8,209.7c22.8,0,46.9-36.6,46.9-65.4v-6c-1.5,3.8-3.2,7.3-5.1,10.2C124.6,174.1,102.8,209.7,82.8,209.7z
				"/>
			<path class="st14" d="M41,148.4c-0.9-1.4-1.8-2.9-2.7-4.6c-0.1,0.1-0.2,0.2-0.3,0.3c-0.7,0.8-1.4,1.5-2.1,2.1
				c1,28.2,24.6,63.5,46.8,63.5C61.4,209.7,42.9,174.4,41,148.4z"/>
		</g>
		<path class="st2" d="M64.3,164c0,8.6,4.9,27.1,18.5,27.1s18.5-18.5,18.5-27.1c0-7.4-9.9-12.3-18.5-12.3S64.3,156.6,64.3,164z"/>
		<path class="st15" d="M67.7,182.2c0,0,4.3-10.1,15.1-10.1s15.4,10.1,15.4,10.1s-5.7,7.9-15.4,7.9S67.7,182.2,67.7,182.2z"/>
		<path class="st16" d="M80.7,172.2c-9.3,1.2-13,10-13,10s0.9,1.4,2.7,3C73.1,176.6,77.6,173.4,80.7,172.2z"/>
		<path class="st0" d="M65.4,159.1H100c0,0-2.3-7.4-17.2-7.4S65.4,159.1,65.4,159.1z"/>
		<path class="st2" d="M82.8,193.6c-15.7,0-21-20.3-21-29.6c0-8.9,10.8-14.8,21-14.8c10.1,0,21,6,21,14.8
			C103.8,173.3,98.5,193.6,82.8,193.6z M82.8,154.1c-7.6,0-16,4.2-16,9.9c0,6.6,3.8,24.7,16,24.7s16-18.1,16-24.7
			C98.9,158.4,90.4,154.1,82.8,154.1z"/>
	</g>
	<g id="Smile_3_" class="st3">
		<g id="Beard_15_" class="st4">
			<g>
				<path class="st5" d="M114.9,152.9c8.6,0,17.3-24.7,17.3-38.3c0,0,0,16,0,29.6c0,29.6-24.7,61.7-49.4,61.7s-49.4-32.1-49.4-61.7
					c0-13.6,0-29.6,0-29.6c0,13.6,8.6,38.3,17.3,38.3c8.6,0,12.3-12.3,32.1-12.3S105,152.9,114.9,152.9z"/>
				<path d="M82.8,208.4C57.1,208.4,31,176,31,144.2v-29.6h4.9c0,14.4,8.9,35.8,14.8,35.8c2.6,0,4.8-1.6,7.8-3.8
					c4.9-3.6,11.6-8.5,24.3-8.5c12.4,0,18.5,4.6,23.4,8.2c3.2,2.4,5.5,4.1,8.7,4.1c6,0,14.8-21.4,14.8-35.8h4.9v29.7
					C134.7,176.1,108.5,208.4,82.8,208.4z M35.9,138.3v6c0,28.8,24.1,59.2,46.9,59.2s46.9-30.4,46.9-59.2v-6
					c-3.6,9.3-8.8,17.1-14.8,17.1c-4.9,0-8.2-2.5-11.7-5.1c-4.5-3.4-9.6-7.2-20.4-7.2c-11.1,0-16.5,4-21.3,7.5
					c-3.3,2.5-6.5,4.8-10.8,4.8C44.7,155.4,39.5,147.6,35.9,138.3z"/>
			</g>
			<path class="st6" d="M82.8,203.5c22.8,0,46.9-30.4,46.9-59.2v-6c-1.5,3.8-3.2,7.3-5.1,10.2C124.6,174.1,102.8,203.5,82.8,203.5z"
				/>
			<path class="st7" d="M41,148.4c-0.9-1.4-1.8-2.9-2.7-4.6c-0.1,0.1-0.2,0.2-0.3,0.3c-0.7,0.8-1.4,1.5-2.1,2.1
				c1,28.2,24.6,57.3,46.8,57.3C61.4,203.5,42.9,174.4,41,148.4z"/>
		</g>
		<g class="st4">
			<path class="st10" d="M60.7,164c0,8.6,7.8,14.8,22.2,14.8s22.2-6.2,22.2-14.8c0-7.4-13-12.3-22.2-12.3S60.7,156.6,60.7,164z"/>
			<path d="M82.8,181.4c-15,0-24.7-6.8-24.7-17.3c0-9.2,14.4-14.9,24.7-14.9s24.7,5.7,24.7,14.9C107.5,174.5,97.8,181.4,82.8,181.4z
				 M82.8,154.2c-8.6,0-19.6,4.6-19.6,9.8c0,7.6,7.5,12.3,19.6,12.3s19.6-4.7,19.6-12.3C102.4,158.8,91.5,154.2,82.8,154.2z"/>
		</g>
		<path class="st4" d="M82.8,170.1c-4.5,0-8.6-2.2-11.3-5.9c-0.8-1.1-0.5-2.6,0.6-3.3c1.1-0.8,2.6-0.5,3.3,0.6
			c1.8,2.5,4.5,3.9,7.4,3.9s5.6-1.4,7.4-3.9c0.8-1.1,2.3-1.3,3.3-0.6c1.1,0.8,1.3,2.3,0.6,3.3C91.4,167.9,87.3,170.1,82.8,170.1z"/>
	</g>
	<g id="Neutral_3_" class="st3">
		<g id="Beard_14_" class="st4">
			<g>
				<path class="st5" d="M114.9,152.9c8.6,0,17.3-24.7,17.3-38.3c0,0,0,16,0,29.6c0,29.6-24.7,61.7-49.4,61.7s-49.4-32.1-49.4-61.7
					c0-13.6,0-29.6,0-29.6c0,13.6,8.6,38.3,17.3,38.3c8.6,0,12.3-12.3,32.1-12.3S105,152.9,114.9,152.9z"/>
				<path d="M82.8,208.4C57.1,208.4,31,176,31,144.2v-29.6h4.9c0,14.4,8.9,35.8,14.8,35.8c2.6,0,4.8-1.6,7.8-3.8
					c4.9-3.6,11.6-8.5,24.3-8.5c12.4,0,18.5,4.6,23.4,8.2c3.2,2.4,5.5,4.1,8.7,4.1c6,0,14.8-21.4,14.8-35.8h4.9v29.7
					C134.7,176.1,108.5,208.4,82.8,208.4z M35.9,138.3v6c0,28.8,24.1,59.2,46.9,59.2s46.9-30.4,46.9-59.2v-6
					c-3.6,9.3-8.8,17.1-14.8,17.1c-4.9,0-8.2-2.5-11.7-5.1c-4.5-3.4-9.6-7.2-20.4-7.2c-11.1,0-16.5,4-21.3,7.5
					c-3.3,2.5-6.5,4.8-10.8,4.8C44.7,155.4,39.5,147.6,35.9,138.3z"/>
			</g>
			<path class="st6" d="M82.8,203.5c22.8,0,46.9-30.4,46.9-59.2v-6c-1.5,3.8-3.2,7.3-5.1,10.2C124.6,174.1,102.8,203.5,82.8,203.5z"
				/>
			<path class="st7" d="M41,148.4c-0.9-1.4-1.8-2.9-2.7-4.6c-0.1,0.1-0.2,0.2-0.3,0.3c-0.7,0.8-1.4,1.5-2.1,2.1
				c1,28.2,24.6,57.3,46.8,57.3C61.4,203.5,42.9,174.4,41,148.4z"/>
		</g>
		<g class="st4">
			<path class="st10" d="M61.9,164c0,8.6,7.4,14.8,21,14.8s21-6.2,21-14.8c0-7.4-12.3-12.3-21-12.3S61.9,156.6,61.9,164z"/>
			<path d="M82.8,181.3c-14.2,0-23.4-6.8-23.4-17.3c0-9.2,13.7-14.8,23.4-14.8s23.4,5.6,23.4,14.8
				C106.3,174.5,97.1,181.3,82.8,181.3z M82.8,154.1c-8.2,0-18.5,4.6-18.5,9.9c0,7.6,7.1,12.3,18.5,12.3s18.5-4.7,18.5-12.3
				C101.3,158.8,91,154.1,82.8,154.1z"/>
		</g>
		<path class="st4" d="M82.8,169c-4.9,0-8.5-0.9-8.7-0.9c-1.3-0.3-2.1-1.6-1.8-2.9c0.3-1.3,1.6-2.1,2.9-1.8c0.1,0,3.2,0.8,7.5,0.8
			s7.5-0.8,7.5-0.8c1.3-0.3,2.6,0.5,2.9,1.8c0.3,1.3-0.5,2.6-1.8,2.9C91.3,168.1,87.7,169,82.8,169z"/>
	</g>
</g>
<g id="_x2B_Right_Eye">
	<g id="Alt-Eye_2_" class="st3">
		<g id="_x2B_alt_pupil_right" class="st4">
			<path id="_x38__3_" class="st3" d="M60.6,137.6L60.6,137.6c-6,0-10.8-4.8-10.8-10.8v-4.3c0-6,4.8-10.8,10.8-10.8l0,0
				c6,0,10.8,4.8,10.8,10.8v4.3C71.4,132.7,66.5,137.6,60.6,137.6z"/>
			<path id="_x37__3_" class="st3" d="M60.6,137.3L60.6,137.3c-6,0-10.8-4.8-10.8-10.8v-3.7c0-6,4.8-10.8,10.8-10.8l0,0
				c6,0,10.8,4.8,10.8,10.8v3.7C71.4,132.4,66.5,137.3,60.6,137.3z"/>
			<path id="_x36__6_" class="st3" d="M60.6,136.9L60.6,136.9c-6,0-10.8-4.8-10.8-10.8V123c0-6,4.8-10.8,10.8-10.8l0,0
				c6,0,10.8,4.8,10.8,10.8v3.1C71.4,132.1,66.5,136.9,60.6,136.9z"/>
			<path id="_x35__6_" class="st3" d="M60.6,136.6L60.6,136.6c-6,0-10.8-4.8-10.8-10.8v-2.5c0-6,4.8-10.8,10.8-10.8l0,0
				c6,0,10.8,4.8,10.8,10.8v2.5C71.4,131.8,66.5,136.6,60.6,136.6z"/>
			<path id="_x34__6_" class="st3" d="M60.6,136.3L60.6,136.3c-6,0-10.8-4.8-10.8-10.8v-1.9c0-6,4.8-10.8,10.8-10.8l0,0
				c6,0,10.8,4.8,10.8,10.8v1.9C71.4,131.5,66.5,136.3,60.6,136.3z"/>
			<path id="_x33__6_" class="st3" d="M60.6,136L60.6,136c-6,0-10.8-4.8-10.8-10.8V124c0-6,4.8-10.8,10.8-10.8l0,0
				c6,0,10.8,4.8,10.8,10.8v1.2C71.4,131.2,66.5,136,60.6,136z"/>
			<path id="_x32__6_" class="st3" d="M60.6,135.7L60.6,135.7c-6,0-10.8-4.8-10.8-10.8v-0.6c0-6,4.8-10.8,10.8-10.8l0,0
				c6,0,10.8,4.8,10.8,10.8v0.6C71.4,130.9,66.5,135.7,60.6,135.7z"/>
			<path id="_x31__26_" d="M60.6,135.4L60.6,135.4c-6,0-10.8-4.8-10.8-10.8l0,0c0-6,4.8-10.8,10.8-10.8l0,0c6,0,10.8,4.8,10.8,10.8
				l0,0C71.4,130.6,66.5,135.4,60.6,135.4z"/>
		</g>
		<path id="Star_1_" class="st17" d="M59.5,121.4l0.5-2.2c0.2-0.7,1.2-0.7,1.3,0l0.5,2.2c0.3,1.4,1.3,2.4,2.7,2.7l2.2,0.5
			c0.7,0.2,0.7,1.2,0,1.3l-2.2,0.5c-1.4,0.3-2.4,1.3-2.7,2.7l-0.5,2.2c-0.2,0.7-1.2,0.7-1.3,0l-0.5-2.2c-0.3-1.4-1.3-2.4-2.7-2.7
			l-2.2-0.5c-0.7-0.2-0.7-1.2,0-1.3l2.2-0.5C58.2,123.8,59.2,122.7,59.5,121.4z"/>
	</g>
	<g id="Right_Heart_1_" class="st3">
		<path id="Heart_1_" class="st8" d="M59.9,116.9l-0.8-0.8c-2.7-2.7-7-2.7-9.7,0l0,0c-2.7,2.7-2.7,7,0,9.7l8.9,8.9
			c1.3,1.3,3.5,1.3,4.8,0l8.9-8.9c2.7-2.7,2.7-7,0-9.7l0,0c-2.7-2.7-7-2.7-9.7,0l-0.8,0.8C61,117.3,60.3,117.3,59.9,116.9z"/>
		<circle id="Shine_2_" class="st9" cx="53.9" cy="120.3" r="3.9"/>
	</g>
	<circle id="Right_Eyeball" class="st3" cx="60.7" cy="124.6" r="10.9"/>
	<circle id="_x2B_Right_Pupil" class="st18" cx="60.7" cy="124.6" r="3.9"/>
	<path id="Right_Blink" class="st2" d="M70.5,128.8c-1,0-1.9-0.6-2.3-1.6c-1.3-3.5-4.3-5.8-7.6-5.8c-3.2,0-6.2,2.3-7.6,5.8
		c-0.5,1.3-1.9,1.9-3.2,1.4s-1.9-1.9-1.4-3.2c2.1-5.5,6.9-9,12.2-9s10.1,3.5,12.2,9c0.5,1.3-0.2,2.7-1.4,3.2
		C71.1,128.8,70.8,128.8,70.5,128.8z"/>
</g>
<g id="_x2B_Right_Eyebrow">
	<path class="st1" d="M47,112.5c-0.6,0.1-1.3,0-1.8-0.4c-1.1-0.8-1.4-2.3-0.7-3.4c0.1-0.2,3.1-4.6,8.6-7.1c5.5-2.6,10.8-2,11-2
		c1.4,0.1,2.3,1.4,2.2,2.7c-0.1,1.4-1.4,2.3-2.7,2.2c0,0-4.2-0.4-8.4,1.6s-6.6,5.4-6.6,5.4C48.2,112.1,47.7,112.4,47,112.5z"/>
	<path class="st1" d="M49.8,110.1c0,0-2.8,2.8-2.2,5.4s-2.9-0.3-2.9-0.3l0.4-3.7l3.8-2.9L49.8,110.1z"/>
</g>
<g id="_x2B_Left_Eye">
	<g id="Alt-Eye" class="st3">
		<g id="_x2B_alt_pupil_left" class="st4">
			<path id="_x38__2_" class="st3" d="M105.1,137.6L105.1,137.6c-6,0-10.8-4.8-10.8-10.8v-4.3c0-6,4.8-10.8,10.8-10.8l0,0
				c6,0,10.8,4.8,10.8,10.8v4.3C115.9,132.7,111.1,137.6,105.1,137.6z"/>
			<path id="_x37__2_" class="st3" d="M105.1,137.3L105.1,137.3c-6,0-10.8-4.8-10.8-10.8v-3.7c0-6,4.8-10.8,10.8-10.8l0,0
				c6,0,10.8,4.8,10.8,10.8v3.7C115.9,132.4,111.1,137.3,105.1,137.3z"/>
			<path id="_x36__5_" class="st3" d="M105.1,136.9L105.1,136.9c-6,0-10.8-4.8-10.8-10.8V123c0-6,4.8-10.8,10.8-10.8l0,0
				c6,0,10.8,4.8,10.8,10.8v3.1C115.9,132.1,111.1,136.9,105.1,136.9z"/>
			<path id="_x35__5_" class="st3" d="M105.1,136.6L105.1,136.6c-6,0-10.8-4.8-10.8-10.8v-2.5c0-6,4.8-10.8,10.8-10.8l0,0
				c6,0,10.8,4.8,10.8,10.8v2.5C115.9,131.8,111.1,136.6,105.1,136.6z"/>
			<path id="_x34__5_" class="st3" d="M105.1,136.3L105.1,136.3c-6,0-10.8-4.8-10.8-10.8v-1.9c0-6,4.8-10.8,10.8-10.8l0,0
				c6,0,10.8,4.8,10.8,10.8v1.9C115.9,131.5,111.1,136.3,105.1,136.3z"/>
			<path id="_x33__5_" class="st3" d="M105.1,136L105.1,136c-6,0-10.8-4.8-10.8-10.8V124c0-6,4.8-10.8,10.8-10.8l0,0
				c6,0,10.8,4.8,10.8,10.8v1.2C115.9,131.2,111.1,136,105.1,136z"/>
			<path id="_x32__5_" class="st3" d="M105.1,135.7L105.1,135.7c-6,0-10.8-4.8-10.8-10.8v-0.6c0-6,4.8-10.8,10.8-10.8l0,0
				c6,0,10.8,4.8,10.8,10.8v0.6C115.9,130.9,111.1,135.7,105.1,135.7z"/>
			<path id="_x31__25_" d="M105.1,135.4L105.1,135.4c-6,0-10.8-4.8-10.8-10.8l0,0c0-6,4.8-10.8,10.8-10.8l0,0
				c6,0,10.8,4.8,10.8,10.8l0,0C115.9,130.6,111.1,135.4,105.1,135.4z"/>
		</g>
		<path id="Star_65_" class="st17" d="M103.9,121.4l0.5-2.2c0.2-0.7,1.2-0.7,1.3,0l0.5,2.2c0.3,1.4,1.3,2.4,2.7,2.7l2.2,0.5
			c0.7,0.2,0.7,1.2,0,1.3l-2.2,0.5c-1.4,0.3-2.4,1.3-2.7,2.7l-0.5,2.2c-0.2,0.7-1.2,0.7-1.3,0l-0.5-2.2c-0.3-1.4-1.3-2.4-2.7-2.7
			l-2.2-0.5c-0.7-0.2-0.7-1.2,0-1.3l2.2-0.5C102.6,123.8,103.7,122.7,103.9,121.4z"/>
	</g>
	<g id="Left_Heart" class="st3">
		<path id="Heart" class="st8" d="M104.3,116.9l-0.8-0.8c-2.7-2.7-7-2.7-9.7,0l0,0c-2.7,2.7-2.7,7,0,9.7l8.9,8.9
			c1.3,1.3,3.5,1.3,4.8,0l8.9-8.9c2.7-2.7,2.7-7,0-9.7l0,0c-2.7-2.7-7-2.7-9.7,0l-0.8,0.8C105.4,117.3,104.7,117.3,104.3,116.9z"/>
		<circle id="Shine_1_" class="st9" cx="98.3" cy="120.3" r="3.9"/>
	</g>
	<circle id="Left_Eyeball" class="st3" cx="105.1" cy="124.6" r="10.9"/>
	<circle id="_x2B_Left_Pupil" class="st18" cx="105.1" cy="124.6" r="3.9"/>
	<path id="Left_Blink" class="st2" d="M115,128.8c-1,0-1.9-0.6-2.3-1.6c-1.3-3.5-4.3-5.8-7.6-5.8c-3.2,0-6.2,2.3-7.6,5.8
		c-0.5,1.3-1.9,1.9-3.2,1.4s-1.9-1.9-1.4-3.2c2.1-5.5,6.9-9,12.2-9s10.1,3.5,12.2,9c0.5,1.3-0.2,2.7-1.4,3.2
		C115.6,128.8,115.3,128.8,115,128.8z"/>
</g>
<g id="_x2B_Left_Eyebrow">
	<path class="st1" d="M118.7,112.5c-0.6-0.1-1.2-0.5-1.6-1c0,0-2.4-3.5-6.6-5.4c-4.2-2-8.4-1.6-8.4-1.6c-1.4,0.1-2.6-0.9-2.7-2.2
		c-0.1-1.4,0.8-2.6,2.2-2.7c0.2,0,5.5-0.5,11,2c5.5,2.6,8.5,6.9,8.6,7.1c0.8,1.1,0.5,2.7-0.7,3.4C120,112.5,119.3,112.6,118.7,112.5
		z"/>
</g>
<g id="Cap">
	<g>
		<g>
			<path class="st0" d="M132.2,80.1h-13.5l-2.4-8.2L68.5,60.4l-12,19.7h-23V67.8c0-20.4,16.7-37,37-37h24.7c20.4,0,37,16.7,37,37
				V80.1z"/>
			<path class="st1" d="M124.8,67.8l0,3l5.7,1.9v-6.2c0-16.5-13.3-30.3-28.8-33.7l3.1,7C116.4,43.7,124.8,54.8,124.8,67.8z"/>
			<path class="st2" d="M132.2,82.6h-13.5c-1.1,0-2.1-0.7-2.4-1.8l-2-6.8L69.7,63.2L58.6,81.4c-0.4,0.7-1.2,1.2-2.1,1.2h-23
				c-1.4,0-2.5-1.1-2.5-2.5V67.8C31,46,48.7,28.3,70.5,28.3h24.7c21.8,0,39.5,17.7,39.5,39.5v12.3C134.7,81.5,133.6,82.6,132.2,82.6
				z M120.6,77.6h9.2v-9.9c0-19.1-15.5-34.6-34.6-34.6H70.5c-19.1,0-34.6,15.5-34.6,34.6v9.9h19.3L66.5,59c0.6-0.9,1.6-1.4,2.7-1.1
				L117,69.4c0.9,0.2,1.5,0.9,1.8,1.7L120.6,77.6z"/>
		</g>
		<g>
			<path class="st0" d="M111.8,66.2l-10.9,4l-34.3-5.7L38.7,92.8L19,100L4.7,60.6c-7-19.1,3-40.5,22.1-47.4L50,4.8
				c19.1-7,40.5,3,47.4,22.1L111.8,66.2z"/>
			<path class="st1" d="M90.5,29.3c5.2,14.3,10.5,28.8,13,35.7c1.7,0.4,3.3-0.2,5.1-0.8L95.2,27.6c-4.4-12-14.8-20.1-26.5-22.2
				C70.5,5.9,83.2,9.3,90.5,29.3z"/>
			<path class="st2" d="M17.6,103.2L2.4,61.5c-3.6-9.9-3.1-20.6,1.4-30.2S16.2,14.5,26,10.9l23.2-8.5C69.7-5,92.4,5.5,99.8,26
				L115,67.7l-13.8,5l-33.6-5.6L40.2,94.9L17.6,103.2z M62.6,4.9c-3.9,0-7.9,0.7-11.8,2.1l-23.2,8.4C19,18.5,12.1,24.9,8.1,33.3
				c-3.9,8.4-4.3,17.8-1.2,26.4l13.5,37.1l16.9-6.1l28.4-28.8l34.9,5.8l8-2.9L95.1,27.7C90,13.6,76.7,4.9,62.6,4.9z"/>
		</g>
		<path class="st1" d="M32.9,94.9L18.6,55.5C14.4,44,20.4,31.2,31.9,27l23.2-8.4c2.4-0.9,5-1.3,7.6-1.3c9.3,0,17.7,5.9,20.9,14.6
			l14.3,39.4L93.3,73L79,33.6c-2.5-6.8-9-11.4-16.3-11.4c-2,0-4,0.4-5.9,1l-23.2,8.4c-9,3.3-13.6,13.2-10.3,22.1l14.3,39.4
			L32.9,94.9z"/>
	</g>
</g>
<g>
	<path class="st12" d="M110.9,64.5c-0.8,0.1-1.6,0.3-2.4,0.6C94.9,69.9,85.1,47,61.6,54.3C43.8,59.9,43.9,72.9,43.9,74l2.6,2.2
		l11,11.7C66.8,81.7,62,68.6,79.6,70c10.9,0.9,14.3,8.1,31.4,3.6c3.8-1-3.7,7.2-3.7,7.2s8.6,3.6,13.6,1.2c4.9-2.4-2.5,9.6-2.5,9.6
		s13.5-0.1,13.6,9.2v-25L110.9,64.5z"/>
	<path class="st12" d="M50.8,90.5c3-0.5,5.2-1.4,7-2.6l-11-11.7l-2.6-2.3V74c0,0-16.6,1.7-23,15.3C13.8,105,24.9,117,24.9,117
		s-5.3,4.5-7.3,10c-2.7,7.2-1.5,16.2,6.5,19c14.2,5,22.6-18.3,14.4-33.8C31.7,99.4,42.2,92,50.8,90.5z"/>
	<path class="st14" d="M46.4,76.3l0.1-0.1l3.4,3.5c-0.3-1.5-2.1-13.5,13.8-18.3c10-3,16.1-0.1,23.7,4.1c12.4,6.8,21.9,2,21.9,2
		c-7.1,2.5-13-1.1-19.3-5c-7.7-4.7-15.6-9.6-27.7-5.8c-16.6,5.1-16,17-16,17.2L46.4,76.3z"/>
	<path class="st14" d="M46.8,76.1l-2.3,0.4c-0.1,0-15.4,1.8-21.1,13.9c-6.6,14,3.2,24.9,3.3,25l1.7,1.9l-2,1.7c0,0-4.8,4.2-6.6,9
		l0,0c-1.3,3.5-1.5,7.2-0.6,10.1c0.1,0.4,0.3,0.8,0.5,1.2c1,2.2,2.7,3.7,5.1,4.5c3.1,1.1,6,0.6,8.4-1.6c-1,0-2.3-0.1-3.9-0.5
		c-6.5-1.3-5.9-9.3-4.9-12c2.4-6.7,9.6-12,9.6-12s-11.6-11-6.2-25.2c5.4-14.1,22.1-12.7,22.1-12.7s-0.1-0.2-0.1-0.3L46.8,76.1z"/>
	<path class="st2" d="M51.2,92.9c3.6-0.6,6.2-1.8,8.3-3.2l-3.4-3.6c-1.4,0.9-3.3,1.6-5.7,2C45,89,38.2,92.2,35.3,98.3
		c-1.5,3.1-2.6,8.3,1,15.1c5.1,9.7,3.1,21.9-1.8,27.6c-2.7,3.1-5.9,4.1-9.6,2.8c-2.4-0.8-4.1-2.4-5.1-4.5c-1.4-3-1.4-7.3,0.1-11.3
		c1.8-4.8,6.6-9,6.6-9l2-1.7l-1.7-1.9c-0.1-0.1-9.9-11-3.3-25c5.7-12.1,20.9-13.8,21.1-13.9l1.5-0.2l0.4,0L45.8,75L42,71.9
		c-4.9,1-17.4,4.5-22.9,16.3c-6.3,13.4-0.4,24.3,2.6,28.5c-1.9,1.9-4.8,5.4-6.3,9.4c-2,5.3-1.9,10.8,0.1,15.1
		c1.6,3.4,4.3,5.8,7.9,7.1c1.6,0.6,3.1,0.8,4.6,0.8c3.8,0,7.4-1.7,10.3-5c6.9-8,8-22.6,2.5-33.1c-2.1-4-2.4-7.6-1-10.6
		C41.8,96,47.2,93.6,51.2,92.9z"/>
	<path class="st2" d="M111.5,62.1l-0.8,0.2c-1,0.2-1.9,0.4-2.7,0.7c-4.8,1.7-9.3-1-15.1-4.5c-7.8-4.8-17.5-10.7-31.7-6.3
		C45.6,57,42.5,67.5,41.9,72.1l0,0l4.6,4.2l-0.1-2.4c0-0.5-0.4-12.1,16-17.2c3-0.9,5.8-1.3,8.3-1.3c7.7,0,13.6,3.6,19.4,7.2
		c6.3,3.9,12.2,7.5,19.3,5c0.4-0.1,0.8-0.2,1.2-0.3l18.9,10l0.1,15c-2.1-1.3-4.7-2.1-7-2.6c3.8-7.1,2.5-8.5,1.7-9.3
		c-0.6-0.7-2-1.6-4.4-0.4c-2.1,1-5.5,0.5-8.2-0.2c3.9-4.9,3.1-6.3,2.5-7.2c-0.3-0.4-1.3-1.8-3.7-1.2c-10.3,2.7-15.1,0.9-20.2-1
		c-3-1.1-6.1-2.3-10.3-2.7c-12.8-1.1-15.6,5.1-18.1,10.6c-1.4,3.1-2.8,6-5.9,7.9l3.4,3.6c3.8-2.7,5.5-6.3,6.9-9.5
		c2.4-5.1,3.9-8.5,13.3-7.7c3.5,0.3,6.1,1.3,9,2.4c4.9,1.8,9.9,3.7,19,2.1c-0.6,0.7-1.2,1.5-1.9,2.2l-2.3,2.6l3.2,1.3
		c0.8,0.4,7.3,3,12.8,2c-0.7,1.5-1.7,3.5-2.8,5.3l-2.3,3.8h4.4c0.1,0,11.1,0.1,11.1,6.7h4.9V74.3L111.5,62.1z"/>
</g>
</svg>
